<?xml version="1.0" encoding="utf-8" standalone="no"?>
<!DOCTYPE svg PUBLIC "-//W3C//DTD SVG 1.1//EN"
  "http://www.w3.org/Graphics/SVG/1.1/DTD/svg11.dtd">
<!-- Created with matplotlib (https://matplotlib.org/) -->
<svg height="345.6pt" version="1.1" viewBox="0 0 460.8 345.6" width="460.8pt" xmlns="http://www.w3.org/2000/svg" xmlns:xlink="http://www.w3.org/1999/xlink">
 <defs>
  <style type="text/css">
*{stroke-linecap:butt;stroke-linejoin:round;}
  </style>
 </defs>
 <g id="figure_1">
  <g id="patch_1">
   <path d="M 0 345.6 
L 460.8 345.6 
L 460.8 0 
L 0 0 
z
" style="fill:#ffffff;"/>
  </g>
  <g id="axes_1">
   <g id="patch_2">
    <path d="M 57.6 307.584 
L 414.72 307.584 
L 414.72 41.472 
L 57.6 41.472 
z
" style="fill:#ffffff;"/>
   </g>
   <g id="matplotlib.axis_1">
    <g id="xtick_1">
     <g id="line2d_1">
      <defs>
       <path d="M 0 0 
L 0 3.5 
" id="m16f8131571" style="stroke:#000000;stroke-width:0.8;"/>
      </defs>
      <g>
       <use style="stroke:#000000;stroke-width:0.8;" x="73.832727" xlink:href="#m16f8131571" y="307.584"/>
      </g>
     </g>
     <g id="text_1">
      <!-- 0.000000 -->
      <defs>
       <path d="M 31.78125 66.40625 
Q 24.171875 66.40625 20.328125 58.90625 
Q 16.5 51.421875 16.5 36.375 
Q 16.5 21.390625 20.328125 13.890625 
Q 24.171875 6.390625 31.78125 6.390625 
Q 39.453125 6.390625 43.28125 13.890625 
Q 47.125 21.390625 47.125 36.375 
Q 47.125 51.421875 43.28125 58.90625 
Q 39.453125 66.40625 31.78125 66.40625 
z
M 31.78125 74.21875 
Q 44.046875 74.21875 50.515625 64.515625 
Q 56.984375 54.828125 56.984375 36.375 
Q 56.984375 17.96875 50.515625 8.265625 
Q 44.046875 -1.421875 31.78125 -1.421875 
Q 19.53125 -1.421875 13.0625 8.265625 
Q 6.59375 17.96875 6.59375 36.375 
Q 6.59375 54.828125 13.0625 64.515625 
Q 19.53125 74.21875 31.78125 74.21875 
z
" id="DejaVuSans-48"/>
       <path d="M 10.6875 12.40625 
L 21 12.40625 
L 21 0 
L 10.6875 0 
z
" id="DejaVuSans-46"/>
      </defs>
      <g transform="translate(31.46994 345.022252)rotate(-30)scale(0.1 -0.1)">
       <use xlink:href="#DejaVuSans-48"/>
       <use x="63.623047" xlink:href="#DejaVuSans-46"/>
       <use x="95.410156" xlink:href="#DejaVuSans-48"/>
       <use x="159.033203" xlink:href="#DejaVuSans-48"/>
       <use x="222.65625" xlink:href="#DejaVuSans-48"/>
       <use x="286.279297" xlink:href="#DejaVuSans-48"/>
       <use x="349.902344" xlink:href="#DejaVuSans-48"/>
       <use x="413.525391" xlink:href="#DejaVuSans-48"/>
      </g>
     </g>
    </g>
    <g id="xtick_2">
     <g id="line2d_2">
      <g>
       <use style="stroke:#000000;stroke-width:0.8;" x="138.861179" xlink:href="#m16f8131571" y="307.584"/>
      </g>
     </g>
     <g id="text_2">
      <!-- 0.000002 -->
      <defs>
       <path d="M 19.1875 8.296875 
L 53.609375 8.296875 
L 53.609375 0 
L 7.328125 0 
L 7.328125 8.296875 
Q 12.9375 14.109375 22.625 23.890625 
Q 32.328125 33.6875 34.8125 36.53125 
Q 39.546875 41.84375 41.421875 45.53125 
Q 43.3125 49.21875 43.3125 52.78125 
Q 43.3125 58.59375 39.234375 62.25 
Q 35.15625 65.921875 28.609375 65.921875 
Q 23.96875 65.921875 18.8125 64.3125 
Q 13.671875 62.703125 7.8125 59.421875 
L 7.8125 69.390625 
Q 13.765625 71.78125 18.9375 73 
Q 24.125 74.21875 28.421875 74.21875 
Q 39.75 74.21875 46.484375 68.546875 
Q 53.21875 62.890625 53.21875 53.421875 
Q 53.21875 48.921875 51.53125 44.890625 
Q 49.859375 40.875 45.40625 35.40625 
Q 44.1875 33.984375 37.640625 27.21875 
Q 31.109375 20.453125 19.1875 8.296875 
z
" id="DejaVuSans-50"/>
      </defs>
      <g transform="translate(96.498392 345.022252)rotate(-30)scale(0.1 -0.1)">
       <use xlink:href="#DejaVuSans-48"/>
       <use x="63.623047" xlink:href="#DejaVuSans-46"/>
       <use x="95.410156" xlink:href="#DejaVuSans-48"/>
       <use x="159.033203" xlink:href="#DejaVuSans-48"/>
       <use x="222.65625" xlink:href="#DejaVuSans-48"/>
       <use x="286.279297" xlink:href="#DejaVuSans-48"/>
       <use x="349.902344" xlink:href="#DejaVuSans-48"/>
       <use x="413.525391" xlink:href="#DejaVuSans-50"/>
      </g>
     </g>
    </g>
    <g id="xtick_3">
     <g id="line2d_3">
      <g>
       <use style="stroke:#000000;stroke-width:0.8;" x="203.889631" xlink:href="#m16f8131571" y="307.584"/>
      </g>
     </g>
     <g id="text_3">
      <!-- 0.000004 -->
      <defs>
       <path d="M 37.796875 64.3125 
L 12.890625 25.390625 
L 37.796875 25.390625 
z
M 35.203125 72.90625 
L 47.609375 72.90625 
L 47.609375 25.390625 
L 58.015625 25.390625 
L 58.015625 17.1875 
L 47.609375 17.1875 
L 47.609375 0 
L 37.796875 0 
L 37.796875 17.1875 
L 4.890625 17.1875 
L 4.890625 26.703125 
z
" id="DejaVuSans-52"/>
      </defs>
      <g transform="translate(161.526844 345.022252)rotate(-30)scale(0.1 -0.1)">
       <use xlink:href="#DejaVuSans-48"/>
       <use x="63.623047" xlink:href="#DejaVuSans-46"/>
       <use x="95.410156" xlink:href="#DejaVuSans-48"/>
       <use x="159.033203" xlink:href="#DejaVuSans-48"/>
       <use x="222.65625" xlink:href="#DejaVuSans-48"/>
       <use x="286.279297" xlink:href="#DejaVuSans-48"/>
       <use x="349.902344" xlink:href="#DejaVuSans-48"/>
       <use x="413.525391" xlink:href="#DejaVuSans-52"/>
      </g>
     </g>
    </g>
    <g id="xtick_4">
     <g id="line2d_4">
      <g>
       <use style="stroke:#000000;stroke-width:0.8;" x="268.918083" xlink:href="#m16f8131571" y="307.584"/>
      </g>
     </g>
     <g id="text_4">
      <!-- 0.000006 -->
      <defs>
       <path d="M 33.015625 40.375 
Q 26.375 40.375 22.484375 35.828125 
Q 18.609375 31.296875 18.609375 23.390625 
Q 18.609375 15.53125 22.484375 10.953125 
Q 26.375 6.390625 33.015625 6.390625 
Q 39.65625 6.390625 43.53125 10.953125 
Q 47.40625 15.53125 47.40625 23.390625 
Q 47.40625 31.296875 43.53125 35.828125 
Q 39.65625 40.375 33.015625 40.375 
z
M 52.59375 71.296875 
L 52.59375 62.3125 
Q 48.875 64.0625 45.09375 64.984375 
Q 41.3125 65.921875 37.59375 65.921875 
Q 27.828125 65.921875 22.671875 59.328125 
Q 17.53125 52.734375 16.796875 39.40625 
Q 19.671875 43.65625 24.015625 45.921875 
Q 28.375 48.1875 33.59375 48.1875 
Q 44.578125 48.1875 50.953125 41.515625 
Q 57.328125 34.859375 57.328125 23.390625 
Q 57.328125 12.15625 50.6875 5.359375 
Q 44.046875 -1.421875 33.015625 -1.421875 
Q 20.359375 -1.421875 13.671875 8.265625 
Q 6.984375 17.96875 6.984375 36.375 
Q 6.984375 53.65625 15.1875 63.9375 
Q 23.390625 74.21875 37.203125 74.21875 
Q 40.921875 74.21875 44.703125 73.484375 
Q 48.484375 72.75 52.59375 71.296875 
z
" id="DejaVuSans-54"/>
      </defs>
      <g transform="translate(226.555295 345.022252)rotate(-30)scale(0.1 -0.1)">
       <use xlink:href="#DejaVuSans-48"/>
       <use x="63.623047" xlink:href="#DejaVuSans-46"/>
       <use x="95.410156" xlink:href="#DejaVuSans-48"/>
       <use x="159.033203" xlink:href="#DejaVuSans-48"/>
       <use x="222.65625" xlink:href="#DejaVuSans-48"/>
       <use x="286.279297" xlink:href="#DejaVuSans-48"/>
       <use x="349.902344" xlink:href="#DejaVuSans-48"/>
       <use x="413.525391" xlink:href="#DejaVuSans-54"/>
      </g>
     </g>
    </g>
    <g id="xtick_5">
     <g id="line2d_5">
      <g>
       <use style="stroke:#000000;stroke-width:0.8;" x="333.946534" xlink:href="#m16f8131571" y="307.584"/>
      </g>
     </g>
     <g id="text_5">
      <!-- 0.000008 -->
      <defs>
       <path d="M 31.78125 34.625 
Q 24.75 34.625 20.71875 30.859375 
Q 16.703125 27.09375 16.703125 20.515625 
Q 16.703125 13.921875 20.71875 10.15625 
Q 24.75 6.390625 31.78125 6.390625 
Q 38.8125 6.390625 42.859375 10.171875 
Q 46.921875 13.96875 46.921875 20.515625 
Q 46.921875 27.09375 42.890625 30.859375 
Q 38.875 34.625 31.78125 34.625 
z
M 21.921875 38.8125 
Q 15.578125 40.375 12.03125 44.71875 
Q 8.5 49.078125 8.5 55.328125 
Q 8.5 64.0625 14.71875 69.140625 
Q 20.953125 74.21875 31.78125 74.21875 
Q 42.671875 74.21875 48.875 69.140625 
Q 55.078125 64.0625 55.078125 55.328125 
Q 55.078125 49.078125 51.53125 44.71875 
Q 48 40.375 41.703125 38.8125 
Q 48.828125 37.15625 52.796875 32.3125 
Q 56.78125 27.484375 56.78125 20.515625 
Q 56.78125 9.90625 50.3125 4.234375 
Q 43.84375 -1.421875 31.78125 -1.421875 
Q 19.734375 -1.421875 13.25 4.234375 
Q 6.78125 9.90625 6.78125 20.515625 
Q 6.78125 27.484375 10.78125 32.3125 
Q 14.796875 37.15625 21.921875 38.8125 
z
M 18.3125 54.390625 
Q 18.3125 48.734375 21.84375 45.5625 
Q 25.390625 42.390625 31.78125 42.390625 
Q 38.140625 42.390625 41.71875 45.5625 
Q 45.3125 48.734375 45.3125 54.390625 
Q 45.3125 60.0625 41.71875 63.234375 
Q 38.140625 66.40625 31.78125 66.40625 
Q 25.390625 66.40625 21.84375 63.234375 
Q 18.3125 60.0625 18.3125 54.390625 
z
" id="DejaVuSans-56"/>
      </defs>
      <g transform="translate(291.583747 345.022252)rotate(-30)scale(0.1 -0.1)">
       <use xlink:href="#DejaVuSans-48"/>
       <use x="63.623047" xlink:href="#DejaVuSans-46"/>
       <use x="95.410156" xlink:href="#DejaVuSans-48"/>
       <use x="159.033203" xlink:href="#DejaVuSans-48"/>
       <use x="222.65625" xlink:href="#DejaVuSans-48"/>
       <use x="286.279297" xlink:href="#DejaVuSans-48"/>
       <use x="349.902344" xlink:href="#DejaVuSans-48"/>
       <use x="413.525391" xlink:href="#DejaVuSans-56"/>
      </g>
     </g>
    </g>
    <g id="xtick_6">
     <g id="line2d_6">
      <g>
       <use style="stroke:#000000;stroke-width:0.8;" x="398.974986" xlink:href="#m16f8131571" y="307.584"/>
      </g>
     </g>
     <g id="text_6">
      <!-- 0.000010 -->
      <defs>
       <path d="M 12.40625 8.296875 
L 28.515625 8.296875 
L 28.515625 63.921875 
L 10.984375 60.40625 
L 10.984375 69.390625 
L 28.421875 72.90625 
L 38.28125 72.90625 
L 38.28125 8.296875 
L 54.390625 8.296875 
L 54.390625 0 
L 12.40625 0 
z
" id="DejaVuSans-49"/>
      </defs>
      <g transform="translate(356.612199 345.022252)rotate(-30)scale(0.1 -0.1)">
       <use xlink:href="#DejaVuSans-48"/>
       <use x="63.623047" xlink:href="#DejaVuSans-46"/>
       <use x="95.410156" xlink:href="#DejaVuSans-48"/>
       <use x="159.033203" xlink:href="#DejaVuSans-48"/>
       <use x="222.65625" xlink:href="#DejaVuSans-48"/>
       <use x="286.279297" xlink:href="#DejaVuSans-48"/>
       <use x="349.902344" xlink:href="#DejaVuSans-49"/>
       <use x="413.525391" xlink:href="#DejaVuSans-48"/>
      </g>
     </g>
    </g>
    <g id="text_7">
     <!-- time(s) -->
     <defs>
      <path d="M 18.3125 70.21875 
L 18.3125 54.6875 
L 36.8125 54.6875 
L 36.8125 47.703125 
L 18.3125 47.703125 
L 18.3125 18.015625 
Q 18.3125 11.328125 20.140625 9.421875 
Q 21.96875 7.515625 27.59375 7.515625 
L 36.8125 7.515625 
L 36.8125 0 
L 27.59375 0 
Q 17.1875 0 13.234375 3.875 
Q 9.28125 7.765625 9.28125 18.015625 
L 9.28125 47.703125 
L 2.6875 47.703125 
L 2.6875 54.6875 
L 9.28125 54.6875 
L 9.28125 70.21875 
z
" id="DejaVuSans-116"/>
      <path d="M 9.421875 54.6875 
L 18.40625 54.6875 
L 18.40625 0 
L 9.421875 0 
z
M 9.421875 75.984375 
L 18.40625 75.984375 
L 18.40625 64.59375 
L 9.421875 64.59375 
z
" id="DejaVuSans-105"/>
      <path d="M 52 44.1875 
Q 55.375 50.25 60.0625 53.125 
Q 64.75 56 71.09375 56 
Q 79.640625 56 84.28125 50.015625 
Q 88.921875 44.046875 88.921875 33.015625 
L 88.921875 0 
L 79.890625 0 
L 79.890625 32.71875 
Q 79.890625 40.578125 77.09375 44.375 
Q 74.3125 48.1875 68.609375 48.1875 
Q 61.625 48.1875 57.5625 43.546875 
Q 53.515625 38.921875 53.515625 30.90625 
L 53.515625 0 
L 44.484375 0 
L 44.484375 32.71875 
Q 44.484375 40.625 41.703125 44.40625 
Q 38.921875 48.1875 33.109375 48.1875 
Q 26.21875 48.1875 22.15625 43.53125 
Q 18.109375 38.875 18.109375 30.90625 
L 18.109375 0 
L 9.078125 0 
L 9.078125 54.6875 
L 18.109375 54.6875 
L 18.109375 46.1875 
Q 21.1875 51.21875 25.484375 53.609375 
Q 29.78125 56 35.6875 56 
Q 41.65625 56 45.828125 52.96875 
Q 50 49.953125 52 44.1875 
z
" id="DejaVuSans-109"/>
      <path d="M 56.203125 29.59375 
L 56.203125 25.203125 
L 14.890625 25.203125 
Q 15.484375 15.921875 20.484375 11.0625 
Q 25.484375 6.203125 34.421875 6.203125 
Q 39.59375 6.203125 44.453125 7.46875 
Q 49.3125 8.734375 54.109375 11.28125 
L 54.109375 2.78125 
Q 49.265625 0.734375 44.1875 -0.34375 
Q 39.109375 -1.421875 33.890625 -1.421875 
Q 20.796875 -1.421875 13.15625 6.1875 
Q 5.515625 13.8125 5.515625 26.8125 
Q 5.515625 40.234375 12.765625 48.109375 
Q 20.015625 56 32.328125 56 
Q 43.359375 56 49.78125 48.890625 
Q 56.203125 41.796875 56.203125 29.59375 
z
M 47.21875 32.234375 
Q 47.125 39.59375 43.09375 43.984375 
Q 39.0625 48.390625 32.421875 48.390625 
Q 24.90625 48.390625 20.390625 44.140625 
Q 15.875 39.890625 15.1875 32.171875 
z
" id="DejaVuSans-101"/>
      <path d="M 31 75.875 
Q 24.46875 64.65625 21.28125 53.65625 
Q 18.109375 42.671875 18.109375 31.390625 
Q 18.109375 20.125 21.3125 9.0625 
Q 24.515625 -2 31 -13.1875 
L 23.1875 -13.1875 
Q 15.875 -1.703125 12.234375 9.375 
Q 8.59375 20.453125 8.59375 31.390625 
Q 8.59375 42.28125 12.203125 53.3125 
Q 15.828125 64.359375 23.1875 75.875 
z
" id="DejaVuSans-40"/>
      <path d="M 44.28125 53.078125 
L 44.28125 44.578125 
Q 40.484375 46.53125 36.375 47.5 
Q 32.28125 48.484375 27.875 48.484375 
Q 21.1875 48.484375 17.84375 46.4375 
Q 14.5 44.390625 14.5 40.28125 
Q 14.5 37.15625 16.890625 35.375 
Q 19.28125 33.59375 26.515625 31.984375 
L 29.59375 31.296875 
Q 39.15625 29.25 43.1875 25.515625 
Q 47.21875 21.78125 47.21875 15.09375 
Q 47.21875 7.46875 41.1875 3.015625 
Q 35.15625 -1.421875 24.609375 -1.421875 
Q 20.21875 -1.421875 15.453125 -0.5625 
Q 10.6875 0.296875 5.421875 2 
L 5.421875 11.28125 
Q 10.40625 8.6875 15.234375 7.390625 
Q 20.0625 6.109375 24.8125 6.109375 
Q 31.15625 6.109375 34.5625 8.28125 
Q 37.984375 10.453125 37.984375 14.40625 
Q 37.984375 18.0625 35.515625 20.015625 
Q 33.0625 21.96875 24.703125 23.78125 
L 21.578125 24.515625 
Q 13.234375 26.265625 9.515625 29.90625 
Q 5.8125 33.546875 5.8125 39.890625 
Q 5.8125 47.609375 11.28125 51.796875 
Q 16.75 56 26.8125 56 
Q 31.78125 56 36.171875 55.265625 
Q 40.578125 54.546875 44.28125 53.078125 
z
" id="DejaVuSans-115"/>
      <path d="M 8.015625 75.875 
L 15.828125 75.875 
Q 23.140625 64.359375 26.78125 53.3125 
Q 30.421875 42.28125 30.421875 31.390625 
Q 30.421875 20.453125 26.78125 9.375 
Q 23.140625 -1.703125 15.828125 -13.1875 
L 8.015625 -13.1875 
Q 14.5 -2 17.703125 9.0625 
Q 20.90625 20.125 20.90625 31.390625 
Q 20.90625 42.671875 17.703125 53.65625 
Q 14.5 64.65625 8.015625 75.875 
z
" id="DejaVuSans-41"/>
     </defs>
     <g transform="translate(218.357656 358.421752)scale(0.1 -0.1)">
      <use xlink:href="#DejaVuSans-116"/>
      <use x="39.208984" xlink:href="#DejaVuSans-105"/>
      <use x="66.992188" xlink:href="#DejaVuSans-109"/>
      <use x="164.404297" xlink:href="#DejaVuSans-101"/>
      <use x="225.927734" xlink:href="#DejaVuSans-40"/>
      <use x="264.941406" xlink:href="#DejaVuSans-115"/>
      <use x="317.041016" xlink:href="#DejaVuSans-41"/>
     </g>
    </g>
   </g>
   <g id="matplotlib.axis_2">
    <g id="ytick_1">
     <g id="line2d_7">
      <defs>
       <path d="M 0 0 
L -3.5 0 
" id="m24082166a5" style="stroke:#000000;stroke-width:0.8;"/>
      </defs>
      <g>
       <use style="stroke:#000000;stroke-width:0.8;" x="57.6" xlink:href="#m24082166a5" y="278.307869"/>
      </g>
     </g>
     <g id="text_8">
      <!-- −0.2 -->
      <defs>
       <path d="M 10.59375 35.5 
L 73.1875 35.5 
L 73.1875 27.203125 
L 10.59375 27.203125 
z
" id="DejaVuSans-8722"/>
      </defs>
      <g transform="translate(26.317187 282.107088)scale(0.1 -0.1)">
       <use xlink:href="#DejaVuSans-8722"/>
       <use x="83.789062" xlink:href="#DejaVuSans-48"/>
       <use x="147.412109" xlink:href="#DejaVuSans-46"/>
       <use x="179.199219" xlink:href="#DejaVuSans-50"/>
      </g>
     </g>
    </g>
    <g id="ytick_2">
     <g id="line2d_8">
      <g>
       <use style="stroke:#000000;stroke-width:0.8;" x="57.6" xlink:href="#m24082166a5" y="232.133409"/>
      </g>
     </g>
     <g id="text_9">
      <!-- 0.0 -->
      <g transform="translate(34.696875 235.932628)scale(0.1 -0.1)">
       <use xlink:href="#DejaVuSans-48"/>
       <use x="63.623047" xlink:href="#DejaVuSans-46"/>
       <use x="95.410156" xlink:href="#DejaVuSans-48"/>
      </g>
     </g>
    </g>
    <g id="ytick_3">
     <g id="line2d_9">
      <g>
       <use style="stroke:#000000;stroke-width:0.8;" x="57.6" xlink:href="#m24082166a5" y="185.958949"/>
      </g>
     </g>
     <g id="text_10">
      <!-- 0.2 -->
      <g transform="translate(34.696875 189.758168)scale(0.1 -0.1)">
       <use xlink:href="#DejaVuSans-48"/>
       <use x="63.623047" xlink:href="#DejaVuSans-46"/>
       <use x="95.410156" xlink:href="#DejaVuSans-50"/>
      </g>
     </g>
    </g>
    <g id="ytick_4">
     <g id="line2d_10">
      <g>
       <use style="stroke:#000000;stroke-width:0.8;" x="57.6" xlink:href="#m24082166a5" y="139.78449"/>
      </g>
     </g>
     <g id="text_11">
      <!-- 0.4 -->
      <g transform="translate(34.696875 143.583708)scale(0.1 -0.1)">
       <use xlink:href="#DejaVuSans-48"/>
       <use x="63.623047" xlink:href="#DejaVuSans-46"/>
       <use x="95.410156" xlink:href="#DejaVuSans-52"/>
      </g>
     </g>
    </g>
    <g id="ytick_5">
     <g id="line2d_11">
      <g>
       <use style="stroke:#000000;stroke-width:0.8;" x="57.6" xlink:href="#m24082166a5" y="93.61003"/>
      </g>
     </g>
     <g id="text_12">
      <!-- 0.6 -->
      <g transform="translate(34.696875 97.409249)scale(0.1 -0.1)">
       <use xlink:href="#DejaVuSans-48"/>
       <use x="63.623047" xlink:href="#DejaVuSans-46"/>
       <use x="95.410156" xlink:href="#DejaVuSans-54"/>
      </g>
     </g>
    </g>
    <g id="ytick_6">
     <g id="line2d_12">
      <g>
       <use style="stroke:#000000;stroke-width:0.8;" x="57.6" xlink:href="#m24082166a5" y="47.43557"/>
      </g>
     </g>
     <g id="text_13">
      <!-- 0.8 -->
      <g transform="translate(34.696875 51.234789)scale(0.1 -0.1)">
       <use xlink:href="#DejaVuSans-48"/>
       <use x="63.623047" xlink:href="#DejaVuSans-46"/>
       <use x="95.410156" xlink:href="#DejaVuSans-56"/>
      </g>
     </g>
    </g>
    <g id="text_14">
     <!-- voltage (VOLT) -->
     <defs>
      <path d="M 2.984375 54.6875 
L 12.5 54.6875 
L 29.59375 8.796875 
L 46.6875 54.6875 
L 56.203125 54.6875 
L 35.6875 0 
L 23.484375 0 
z
" id="DejaVuSans-118"/>
      <path d="M 30.609375 48.390625 
Q 23.390625 48.390625 19.1875 42.75 
Q 14.984375 37.109375 14.984375 27.296875 
Q 14.984375 17.484375 19.15625 11.84375 
Q 23.34375 6.203125 30.609375 6.203125 
Q 37.796875 6.203125 41.984375 11.859375 
Q 46.1875 17.53125 46.1875 27.296875 
Q 46.1875 37.015625 41.984375 42.703125 
Q 37.796875 48.390625 30.609375 48.390625 
z
M 30.609375 56 
Q 42.328125 56 49.015625 48.375 
Q 55.71875 40.765625 55.71875 27.296875 
Q 55.71875 13.875 49.015625 6.21875 
Q 42.328125 -1.421875 30.609375 -1.421875 
Q 18.84375 -1.421875 12.171875 6.21875 
Q 5.515625 13.875 5.515625 27.296875 
Q 5.515625 40.765625 12.171875 48.375 
Q 18.84375 56 30.609375 56 
z
" id="DejaVuSans-111"/>
      <path d="M 9.421875 75.984375 
L 18.40625 75.984375 
L 18.40625 0 
L 9.421875 0 
z
" id="DejaVuSans-108"/>
      <path d="M 34.28125 27.484375 
Q 23.390625 27.484375 19.1875 25 
Q 14.984375 22.515625 14.984375 16.5 
Q 14.984375 11.71875 18.140625 8.90625 
Q 21.296875 6.109375 26.703125 6.109375 
Q 34.1875 6.109375 38.703125 11.40625 
Q 43.21875 16.703125 43.21875 25.484375 
L 43.21875 27.484375 
z
M 52.203125 31.203125 
L 52.203125 0 
L 43.21875 0 
L 43.21875 8.296875 
Q 40.140625 3.328125 35.546875 0.953125 
Q 30.953125 -1.421875 24.3125 -1.421875 
Q 15.921875 -1.421875 10.953125 3.296875 
Q 6 8.015625 6 15.921875 
Q 6 25.140625 12.171875 29.828125 
Q 18.359375 34.515625 30.609375 34.515625 
L 43.21875 34.515625 
L 43.21875 35.40625 
Q 43.21875 41.609375 39.140625 45 
Q 35.0625 48.390625 27.6875 48.390625 
Q 23 48.390625 18.546875 47.265625 
Q 14.109375 46.140625 10.015625 43.890625 
L 10.015625 52.203125 
Q 14.9375 54.109375 19.578125 55.046875 
Q 24.21875 56 28.609375 56 
Q 40.484375 56 46.34375 49.84375 
Q 52.203125 43.703125 52.203125 31.203125 
z
" id="DejaVuSans-97"/>
      <path d="M 45.40625 27.984375 
Q 45.40625 37.75 41.375 43.109375 
Q 37.359375 48.484375 30.078125 48.484375 
Q 22.859375 48.484375 18.828125 43.109375 
Q 14.796875 37.75 14.796875 27.984375 
Q 14.796875 18.265625 18.828125 12.890625 
Q 22.859375 7.515625 30.078125 7.515625 
Q 37.359375 7.515625 41.375 12.890625 
Q 45.40625 18.265625 45.40625 27.984375 
z
M 54.390625 6.78125 
Q 54.390625 -7.171875 48.1875 -13.984375 
Q 42 -20.796875 29.203125 -20.796875 
Q 24.46875 -20.796875 20.265625 -20.09375 
Q 16.0625 -19.390625 12.109375 -17.921875 
L 12.109375 -9.1875 
Q 16.0625 -11.328125 19.921875 -12.34375 
Q 23.78125 -13.375 27.78125 -13.375 
Q 36.625 -13.375 41.015625 -8.765625 
Q 45.40625 -4.15625 45.40625 5.171875 
L 45.40625 9.625 
Q 42.625 4.78125 38.28125 2.390625 
Q 33.9375 0 27.875 0 
Q 17.828125 0 11.671875 7.65625 
Q 5.515625 15.328125 5.515625 27.984375 
Q 5.515625 40.671875 11.671875 48.328125 
Q 17.828125 56 27.875 56 
Q 33.9375 56 38.28125 53.609375 
Q 42.625 51.21875 45.40625 46.390625 
L 45.40625 54.6875 
L 54.390625 54.6875 
z
" id="DejaVuSans-103"/>
      <path id="DejaVuSans-32"/>
      <path d="M 28.609375 0 
L 0.78125 72.90625 
L 11.078125 72.90625 
L 34.1875 11.53125 
L 57.328125 72.90625 
L 67.578125 72.90625 
L 39.796875 0 
z
" id="DejaVuSans-86"/>
      <path d="M 39.40625 66.21875 
Q 28.65625 66.21875 22.328125 58.203125 
Q 16.015625 50.203125 16.015625 36.375 
Q 16.015625 22.609375 22.328125 14.59375 
Q 28.65625 6.59375 39.40625 6.59375 
Q 50.140625 6.59375 56.421875 14.59375 
Q 62.703125 22.609375 62.703125 36.375 
Q 62.703125 50.203125 56.421875 58.203125 
Q 50.140625 66.21875 39.40625 66.21875 
z
M 39.40625 74.21875 
Q 54.734375 74.21875 63.90625 63.9375 
Q 73.09375 53.65625 73.09375 36.375 
Q 73.09375 19.140625 63.90625 8.859375 
Q 54.734375 -1.421875 39.40625 -1.421875 
Q 24.03125 -1.421875 14.8125 8.828125 
Q 5.609375 19.09375 5.609375 36.375 
Q 5.609375 53.65625 14.8125 63.9375 
Q 24.03125 74.21875 39.40625 74.21875 
z
" id="DejaVuSans-79"/>
      <path d="M 9.8125 72.90625 
L 19.671875 72.90625 
L 19.671875 8.296875 
L 55.171875 8.296875 
L 55.171875 0 
L 9.8125 0 
z
" id="DejaVuSans-76"/>
      <path d="M -0.296875 72.90625 
L 61.375 72.90625 
L 61.375 64.59375 
L 35.5 64.59375 
L 35.5 0 
L 25.59375 0 
L 25.59375 64.59375 
L -0.296875 64.59375 
z
" id="DejaVuSans-84"/>
     </defs>
     <g transform="translate(20.2375 211.886594)rotate(-90)scale(0.1 -0.1)">
      <use xlink:href="#DejaVuSans-118"/>
      <use x="59.179688" xlink:href="#DejaVuSans-111"/>
      <use x="120.361328" xlink:href="#DejaVuSans-108"/>
      <use x="148.144531" xlink:href="#DejaVuSans-116"/>
      <use x="187.353516" xlink:href="#DejaVuSans-97"/>
      <use x="248.632812" xlink:href="#DejaVuSans-103"/>
      <use x="312.109375" xlink:href="#DejaVuSans-101"/>
      <use x="373.632812" xlink:href="#DejaVuSans-32"/>
      <use x="405.419922" xlink:href="#DejaVuSans-40"/>
      <use x="444.433594" xlink:href="#DejaVuSans-86"/>
      <use x="512.826172" xlink:href="#DejaVuSans-79"/>
      <use x="591.537109" xlink:href="#DejaVuSans-76"/>
      <use x="647.046875" xlink:href="#DejaVuSans-84"/>
      <use x="708.130859" xlink:href="#DejaVuSans-41"/>
     </g>
    </g>
   </g>
   <g id="line2d_13">
    <path clip-path="url(#p9544fd8303)" d="M 73.832727 104.747771 
L 73.995298 104.973333 
L 74.320441 104.296878 
L 74.808154 105.424227 
L 74.970725 105.424227 
L 75.133296 105.649558 
L 75.295867 105.424227 
L 75.458439 105.649558 
L 75.62101 106.100683 
L 75.783581 105.875121 
L 76.108723 105.875121 
L 76.271294 105.649558 
L 76.433865 105.649558 
L 76.759008 106.100683 
L 76.921579 105.875121 
L 77.08415 106.100683 
L 77.246721 106.551576 
L 77.409292 106.326014 
L 77.571863 105.875121 
L 77.897006 106.551576 
L 78.222148 106.551576 
L 78.384719 106.326014 
L 78.54729 106.326014 
L 78.709861 106.100683 
L 78.872432 106.551576 
L 79.035003 106.551576 
L 79.197575 106.326014 
L 79.360146 106.551576 
L 79.522717 107.227801 
L 79.847859 107.227801 
L 80.01043 107.00247 
L 80.335572 106.326014 
L 80.498144 106.326014 
L 80.660715 106.551576 
L 80.985857 107.227801 
L 81.148428 107.453364 
L 81.310999 107.453364 
L 81.47357 107.00247 
L 81.636141 107.00247 
L 81.798713 107.453364 
L 82.123855 107.453364 
L 82.286426 107.904257 
L 82.448997 107.678926 
L 82.774139 108.580713 
L 83.099282 108.580713 
L 83.586995 109.708063 
L 83.749566 109.031607 
L 83.912137 109.031607 
L 84.074708 108.806044 
L 84.399851 110.384287 
L 84.724993 109.256938 
L 84.887564 109.256938 
L 85.212706 110.158956 
L 85.375277 110.158956 
L 85.537849 110.60985 
L 85.70042 110.384287 
L 85.862991 110.60985 
L 86.188133 111.737199 
L 86.350704 111.737199 
L 86.675846 110.835181 
L 87.000989 111.737199 
L 87.326131 110.835181 
L 87.651273 111.737199 
L 87.813844 111.286075 
L 87.976416 111.286075 
L 88.138987 111.737199 
L 88.301558 111.737199 
L 88.464129 111.286075 
L 88.6267 111.286075 
L 88.789271 111.737199 
L 88.951842 111.737199 
L 89.114413 111.286075 
L 89.276985 111.286075 
L 89.439556 111.737199 
L 89.602127 111.737199 
L 89.764698 111.286075 
L 89.927269 111.286075 
L 90.08984 111.737199 
L 90.252411 111.737199 
L 90.414982 111.286075 
L 90.577554 111.286075 
L 90.740125 111.737199 
L 90.902696 111.737199 
L 91.065267 111.286075 
L 91.227838 111.286075 
L 91.390409 111.737199 
L 91.55298 111.737199 
L 91.715552 111.286075 
L 91.878123 111.511637 
L 92.040694 111.962531 
L 92.365836 111.511637 
L 92.528407 111.511637 
L 92.690978 111.737199 
L 93.016121 111.737199 
L 93.178692 111.511637 
L 93.341263 111.737199 
L 93.828976 111.737199 
L 94.154118 112.188093 
L 94.31669 112.188093 
L 94.479261 111.962531 
L 94.641832 112.188093 
L 94.804403 112.188093 
L 95.129545 111.511637 
L 95.454687 112.638986 
L 95.77983 111.737199 
L 96.104972 113.315442 
L 96.430114 111.511637 
L 96.755257 112.413424 
L 96.917828 112.188093 
L 97.24297 112.864318 
L 97.405541 112.864318 
L 97.568112 113.08988 
L 97.730683 112.864318 
L 97.893254 112.864318 
L 98.218397 113.315442 
L 98.380968 113.315442 
L 98.70611 113.766336 
L 99.031252 112.413424 
L 99.518966 113.540774 
L 99.681537 113.540774 
L 99.844108 113.991667 
L 100.006679 113.991667 
L 100.16925 113.540774 
L 100.331821 113.540774 
L 100.656964 114.217229 
L 100.819535 113.991667 
L 100.982106 113.991667 
L 101.144677 114.217229 
L 101.307248 113.766336 
L 101.469819 113.766336 
L 101.63239 114.442561 
L 101.957533 113.991667 
L 102.120104 113.991667 
L 102.282675 113.540774 
L 102.607817 114.668123 
L 102.770388 114.442561 
L 102.932959 114.893685 
L 103.095531 114.893685 
L 103.420673 114.442561 
L 103.583244 114.442561 
L 103.908386 115.344579 
L 104.233528 114.217229 
L 104.558671 115.344579 
L 104.883813 114.442561 
L 105.046384 114.893685 
L 105.208955 114.893685 
L 105.534098 114.442561 
L 105.696669 114.893685 
L 105.85924 115.795472 
L 106.021811 147.359871 
L 106.346953 221.762187 
L 106.509524 229.653333 
L 106.997238 230.78064 
L 107.32238 230.78064 
L 107.484951 234.38802 
L 107.972664 275.872859 
L 108.135236 277.901995 
L 108.297807 277.901995 
L 108.622949 276.774646 
L 108.78552 275.872859 
L 108.948091 277.225539 
L 109.435805 290.52794 
L 109.760947 291.204164 
L 110.086089 290.753271 
L 110.24866 290.302377 
L 110.411231 289.175028 
L 110.573803 290.52794 
L 110.898945 294.586213 
L 111.061516 295.488 
L 111.549229 293.00797 
L 111.874372 291.429727 
L 112.036943 290.978833 
L 112.199514 291.204164 
L 112.524656 291.88062 
L 112.849798 291.204164 
L 113.012369 290.978833 
L 113.987796 287.371453 
L 114.312938 287.371453 
L 114.800652 286.018542 
L 114.963223 285.116755 
L 115.125794 284.891423 
L 115.288365 284.214967 
L 115.450936 284.214967 
L 115.93865 283.087618 
L 116.101221 283.31318 
L 116.263792 282.862287 
L 116.426363 282.862287 
L 117.239219 279.931132 
L 117.40179 279.705801 
L 117.726932 279.705801 
L 117.889503 280.156694 
L 118.702359 276.098421 
L 119.027501 275.421965 
L 119.190072 275.421965 
L 119.515215 274.971071 
L 119.677786 275.196403 
L 119.840357 274.971071 
L 120.002928 274.520178 
L 120.165499 273.618391 
L 120.32807 273.392828 
L 120.490641 273.618391 
L 120.978355 272.491041 
L 121.140926 272.265479 
L 121.466068 271.589023 
L 121.628639 271.589023 
L 121.953782 270.912798 
L 122.116353 270.912798 
L 122.278924 270.687236 
L 122.766637 269.559886 
L 122.929208 269.334555 
L 123.091779 269.334555 
L 123.254351 269.108993 
L 123.416922 268.658099 
L 124.067206 268.658099 
L 124.229777 268.432768 
L 124.392349 267.981643 
L 124.717491 267.981643 
L 124.880062 268.207206 
L 125.042633 267.981643 
L 125.367775 266.178069 
L 125.530346 265.952507 
L 125.692918 265.501613 
L 125.855489 265.501613 
L 126.01806 265.276282 
L 126.180631 265.501613 
L 126.343202 265.501613 
L 126.668344 264.825388 
L 126.830915 265.05072 
L 127.318629 264.374264 
L 127.4812 264.599826 
L 127.643771 264.374264 
L 128.131484 263.247145 
L 128.294056 263.021583 
L 128.456627 263.247145 
L 128.619198 263.021583 
L 129.106911 261.44334 
L 129.269482 260.992446 
L 129.594625 261.894234 
L 129.919767 261.218009 
L 130.082338 261.44334 
L 130.40748 261.44334 
L 130.570051 261.668902 
L 130.732623 261.44334 
L 130.895194 261.668902 
L 131.057765 262.345127 
L 131.220336 262.119796 
L 131.545478 260.992446 
L 131.708049 260.992446 
L 131.87062 260.766884 
L 132.195763 261.44334 
L 132.520905 260.315991 
L 132.846047 261.218009 
L 133.333761 259.414203 
L 133.496332 259.639766 
L 133.658903 259.639766 
L 133.984045 258.061523 
L 134.309187 258.061523 
L 134.471759 258.512416 
L 134.63433 258.512416 
L 134.959472 257.610629 
L 135.122043 257.385067 
L 136.747754 257.385067 
L 136.910325 257.159504 
L 137.072897 257.385067 
L 137.398039 257.385067 
L 137.723181 256.483279 
L 137.885752 256.934173 
L 138.048323 256.934173 
L 138.373466 255.806824 
L 138.536037 256.032386 
L 139.02375 254.67952 
L 139.348892 254.67952 
L 139.511464 254.454074 
L 139.674035 254.67952 
L 139.836606 254.67952 
L 139.999177 254.228604 
L 140.161748 254.228604 
L 140.324319 254.67952 
L 140.48689 254.454074 
L 140.812033 253.1013 
L 140.974604 252.875854 
L 141.137175 252.875854 
L 141.299746 252.650384 
L 141.462317 252.650384 
L 141.624888 252.424914 
L 141.787459 252.424914 
L 141.950031 252.650384 
L 142.112602 252.650384 
L 142.275173 252.875854 
L 142.437744 252.650384 
L 142.925457 251.52308 
L 143.088028 251.52308 
L 143.2506 251.297611 
L 143.575742 250.621224 
L 143.900884 250.621224 
L 144.226026 251.52308 
L 144.388597 251.52308 
L 144.876311 250.395777 
L 145.038882 250.170307 
L 145.364024 250.170307 
L 145.526595 249.944837 
L 145.851738 250.621224 
L 146.014309 250.395777 
L 146.17688 249.944837 
L 146.339451 249.944837 
L 146.502022 250.170307 
L 146.989736 250.170307 
L 147.314878 249.719391 
L 147.477449 248.817534 
L 147.64002 249.268474 
L 147.802591 249.268474 
L 147.965162 249.043004 
L 148.127733 249.043004 
L 148.452876 249.944837 
L 148.778018 248.817534 
L 148.940589 249.043004 
L 149.428302 247.915701 
L 149.753445 248.592087 
L 149.916016 247.915701 
L 150.078587 247.915701 
L 150.241158 247.690231 
L 150.403729 247.239314 
L 150.5663 247.239314 
L 150.728871 247.464761 
L 150.891443 247.464761 
L 151.054014 247.013844 
L 151.216585 247.013844 
L 151.379156 247.239314 
L 151.866869 247.239314 
L 152.029441 247.013844 
L 152.192012 247.464761 
L 152.354583 247.464761 
L 152.517154 247.690231 
L 152.679725 247.464761 
L 152.842296 246.788398 
L 153.004867 246.788398 
L 153.167438 247.239314 
L 153.33001 247.239314 
L 153.492581 247.013844 
L 153.655152 246.562928 
L 153.817723 246.562928 
L 154.142865 247.013844 
L 154.305436 246.788398 
L 154.630579 245.886541 
L 154.955721 246.337458 
L 155.118292 246.788398 
L 155.280863 246.562928 
L 155.443434 246.788398 
L 155.768577 246.788398 
L 155.931148 246.562928 
L 156.418861 246.562928 
L 156.581432 245.886541 
L 156.906574 246.562928 
L 157.069146 246.112011 
L 157.231717 245.210155 
L 157.556859 245.210155 
L 157.71943 245.435624 
L 158.044572 244.984708 
L 158.207143 245.210155 
L 158.369715 244.984708 
L 158.532286 244.984708 
L 158.694857 245.210155 
L 159.019999 244.082851 
L 159.18257 244.308321 
L 159.345141 244.082851 
L 159.507712 243.631935 
L 159.832855 243.631935 
L 160.157997 244.082851 
L 160.320568 244.082851 
L 160.64571 243.406465 
L 160.808282 243.181018 
L 161.295995 244.308321 
L 161.458566 244.082851 
L 161.783708 243.181018 
L 162.433993 244.082851 
L 162.759135 243.406465 
L 162.921706 243.631935 
L 163.084277 243.631935 
L 163.40942 243.181018 
L 163.571991 243.631935 
L 163.734562 243.406465 
L 163.897133 243.406465 
L 164.059704 243.631935 
L 164.384846 242.730078 
L 164.87256 243.857381 
L 165.035131 244.082851 
L 165.360273 243.406465 
L 165.522844 243.181018 
L 166.010558 243.181018 
L 166.3357 243.857381 
L 166.498271 243.406465 
L 166.660842 243.406465 
L 166.823413 242.955548 
L 166.985984 242.053715 
L 167.311127 243.631935 
L 167.473698 243.406465 
L 167.636269 242.730078 
L 167.961411 243.181018 
L 168.123982 243.181018 
L 168.286553 243.406465 
L 168.449125 243.181018 
L 168.611696 242.504631 
L 168.936838 243.406465 
L 169.099409 243.181018 
L 169.26198 243.181018 
L 169.587123 242.279161 
L 169.912265 242.955548 
L 170.074836 242.053715 
L 170.237407 240.475472 
L 170.399978 240.926388 
L 170.72512 242.279161 
L 170.887692 242.955548 
L 171.212834 241.602775 
L 171.375405 242.504631 
L 171.700547 241.377328 
L 172.188261 239.799085 
L 172.350832 241.151858 
L 172.513403 241.151858 
L 172.838545 239.122698 
L 173.001116 239.122698 
L 173.163687 239.573638 
L 173.326258 239.573638 
L 173.48883 239.122698 
L 173.651401 239.348168 
L 173.813972 238.671782 
L 173.976543 238.897252 
L 174.139114 240.024555 
L 174.301685 240.250002 
L 174.464256 240.024555 
L 174.626828 240.024555 
L 174.789399 239.573638 
L 174.95197 239.573638 
L 175.277112 238.220865 
L 175.439683 238.220865 
L 175.764825 239.799085 
L 176.089968 238.446335 
L 176.252539 238.671782 
L 176.577681 238.220865 
L 177.227966 238.220865 
L 177.390537 237.769948 
L 177.553108 238.446335 
L 177.715679 238.220865 
L 178.040821 237.544479 
L 178.365963 238.671782 
L 178.691106 237.769948 
L 178.853677 237.995395 
L 179.016248 237.995395 
L 179.178819 237.544479 
L 179.34139 237.769948 
L 179.503961 238.220865 
L 179.666533 237.995395 
L 179.829104 237.544479 
L 179.991675 237.544479 
L 180.154246 237.995395 
L 180.316817 237.995395 
L 180.479388 237.544479 
L 180.641959 237.544479 
L 180.80453 237.995395 
L 180.967102 237.995395 
L 181.129673 237.544479 
L 181.292244 237.544479 
L 181.454815 237.995395 
L 181.617386 237.995395 
L 181.779957 237.544479 
L 181.942528 237.544479 
L 182.105099 237.995395 
L 182.267671 237.995395 
L 182.430242 237.544479 
L 182.592813 237.544479 
L 182.755384 237.995395 
L 182.917955 237.995395 
L 183.080526 237.544479 
L 183.243097 237.544479 
L 183.405669 237.995395 
L 183.56824 237.995395 
L 183.730811 237.544479 
L 183.893382 237.544479 
L 184.055953 237.995395 
L 184.218524 237.995395 
L 184.381095 237.544479 
L 184.543666 237.544479 
L 184.706238 237.995395 
L 184.868809 237.995395 
L 185.03138 237.544479 
L 185.193951 237.544479 
L 185.356522 237.995395 
L 185.519093 237.995395 
L 185.681664 237.544479 
L 185.844235 237.544479 
L 186.006807 237.995395 
L 186.169378 237.995395 
L 186.331949 237.544479 
L 186.49452 237.544479 
L 186.657091 237.995395 
L 186.819662 237.995395 
L 186.982233 237.544479 
L 187.144804 237.544479 
L 187.307376 237.995395 
L 187.469947 237.995395 
L 187.632518 237.544479 
L 187.795089 237.544479 
L 187.95766 237.995395 
L 188.120231 237.995395 
L 188.282802 237.544479 
L 188.445374 237.544479 
L 188.607945 237.769948 
L 188.933087 237.319009 
L 189.095658 237.544479 
L 189.258229 237.995395 
L 189.4208 237.995395 
L 189.583371 237.544479 
L 189.745943 237.544479 
L 189.908514 237.995395 
L 190.071085 237.769948 
L 190.233656 237.319009 
L 190.396227 237.319009 
L 190.558798 237.769948 
L 190.88394 237.319009 
L 191.046512 237.544479 
L 191.209083 237.995395 
L 191.371654 237.769948 
L 191.534225 237.093562 
L 191.696796 237.093562 
L 191.859367 237.544479 
L 192.021938 237.544479 
L 192.184509 236.868092 
L 192.347081 237.093562 
L 192.509652 237.544479 
L 192.672223 237.544479 
L 192.997365 236.868092 
L 193.159936 237.319009 
L 193.485079 236.868092 
L 193.810221 237.769948 
L 193.972792 237.544479 
L 194.135363 237.093562 
L 194.297934 237.093562 
L 194.460505 237.544479 
L 194.623076 237.544479 
L 194.785648 237.093562 
L 194.948219 237.093562 
L 195.11079 237.769948 
L 195.273361 237.769948 
L 195.598503 236.868092 
L 195.761074 237.319009 
L 195.923645 237.319009 
L 196.248788 236.642622 
L 196.411359 237.093562 
L 196.57393 236.868092 
L 196.736501 236.417175 
L 196.899072 236.642622 
L 197.061643 237.093562 
L 197.224215 236.868092 
L 197.711928 236.868092 
L 198.03707 236.191705 
L 198.362212 237.093562 
L 198.687355 236.417175 
L 198.849926 236.417175 
L 199.175068 236.868092 
L 199.337639 236.417175 
L 199.50021 236.417175 
L 199.662781 236.868092 
L 199.825353 236.642622 
L 199.987924 236.191705 
L 200.150495 236.417175 
L 200.313066 236.868092 
L 200.475637 236.642622 
L 200.638208 236.191705 
L 200.800779 236.417175 
L 201.125922 237.093562 
L 201.451064 236.417175 
L 201.613635 237.093562 
L 201.776206 236.868092 
L 201.938777 236.417175 
L 202.101348 236.417175 
L 202.26392 236.868092 
L 202.426491 236.642622 
L 202.751633 235.966259 
L 203.076775 236.868092 
L 203.401917 236.191705 
L 203.72706 235.740789 
L 203.889631 235.966259 
L 204.052202 235.966259 
L 204.214773 236.642622 
L 204.539915 236.191705 
L 204.702486 236.191705 
L 204.865058 236.642622 
L 205.027629 236.417175 
L 205.352771 235.740789 
L 205.677913 235.740789 
L 206.165627 236.417175 
L 206.328198 236.417175 
L 206.490769 236.191705 
L 206.815911 236.642622 
L 206.978482 236.417175 
L 207.141053 235.740789 
L 207.466196 236.191705 
L 207.791338 235.740789 
L 207.953909 235.740789 
L 208.279051 236.417175 
L 208.441622 236.191705 
L 208.604194 235.740789 
L 208.766765 235.740789 
L 209.091907 235.289872 
L 209.417049 235.966259 
L 209.57962 235.966259 
L 209.904763 235.515319 
L 210.067334 235.740789 
L 210.555047 235.740789 
L 210.717618 235.966259 
L 211.042761 235.515319 
L 211.205332 235.515319 
L 211.367903 235.289872 
L 211.530474 234.838955 
L 212.018187 235.966259 
L 212.180758 235.966259 
L 212.34333 235.289872 
L 212.668472 235.289872 
L 212.831043 235.064402 
L 213.481327 235.064402 
L 213.643899 234.838955 
L 213.80647 235.064402 
L 213.969041 235.515319 
L 214.131612 235.515319 
L 214.294183 235.289872 
L 214.456754 234.613485 
L 214.619325 234.838955 
L 214.781896 235.515319 
L 215.107039 234.38802 
L 215.26961 234.838955 
L 215.432181 234.838955 
L 215.594752 234.613485 
L 215.757323 234.613485 
L 216.082466 235.289872 
L 216.570179 235.289872 
L 216.73275 234.838955 
L 216.895321 235.064402 
L 217.057892 235.515319 
L 217.545606 235.515319 
L 217.708177 235.064402 
L 217.870748 235.064402 
L 218.358461 234.38802 
L 218.683604 235.740789 
L 218.846175 235.289872 
L 219.008746 234.38802 
L 219.333888 234.838955 
L 219.65903 234.838955 
L 219.984173 234.162559 
L 220.309315 234.162559 
L 220.471886 233.937099 
L 220.634457 233.937099 
L 220.959599 235.064402 
L 221.447313 233.711638 
L 221.609884 233.711638 
L 221.772455 233.937099 
L 221.935026 233.937099 
L 222.260168 234.838955 
L 222.585311 234.838955 
L 222.747882 235.064402 
L 222.910453 235.064402 
L 223.073024 234.838955 
L 223.398166 234.162559 
L 223.560737 233.937099 
L 223.88588 233.937099 
L 224.048451 234.38802 
L 224.211022 234.38802 
L 224.536164 233.711638 
L 224.861307 234.838955 
L 225.023878 234.613485 
L 225.511591 233.035254 
L 225.836733 234.162559 
L 225.999304 234.38802 
L 226.324447 233.486178 
L 226.81216 234.162559 
L 227.137302 233.486178 
L 227.462445 234.38802 
L 227.787587 235.064402 
L 227.950158 234.613485 
L 228.112729 233.711638 
L 228.763014 233.711638 
L 228.925585 233.937099 
L 229.088156 233.711638 
L 229.250727 233.711638 
L 229.413298 233.260715 
L 229.575869 233.260715 
L 229.901012 233.711638 
L 230.388725 233.711638 
L 230.551296 233.937099 
L 231.039009 233.937099 
L 231.364152 233.260715 
L 231.526723 233.711638 
L 231.689294 233.711638 
L 231.851865 233.486178 
L 232.014436 233.486178 
L 232.339578 232.809793 
L 232.664721 233.260715 
L 232.827292 233.260715 
L 232.989863 233.035254 
L 233.152434 233.260715 
L 233.477576 232.35887 
L 233.96529 233.486178 
L 234.127861 233.486178 
L 234.290432 233.035254 
L 234.453003 233.260715 
L 234.615574 233.711638 
L 234.940717 233.260715 
L 235.591001 233.260715 
L 235.753572 233.486178 
L 235.916143 233.035254 
L 236.078714 201.696129 
L 236.403857 127.744961 
L 236.566428 120.755533 
L 236.728999 119.853746 
L 236.89157 118.275503 
L 237.054141 117.824609 
L 237.216712 118.04994 
L 237.379283 118.500834 
L 237.541855 114.668123 
L 238.029568 73.634266 
L 238.192139 71.830461 
L 238.679853 71.154005 
L 238.842424 71.830461 
L 239.004995 71.154005 
L 239.330137 62.586565 
L 239.492708 57.400942 
L 239.81785 55.597368 
L 239.980422 55.597368 
L 240.142993 56.499155 
L 240.468135 59.204747 
L 240.630706 58.077398 
L 240.955848 54.019124 
L 241.118419 53.568 
L 241.280991 53.793562 
L 241.443562 53.793562 
L 242.093846 56.273592 
L 242.256417 56.048261 
L 242.418988 55.597368 
L 242.58156 55.597368 
L 242.744131 56.048261 
L 243.069273 58.077398 
L 243.882129 60.106534 
L 244.0447 60.106534 
L 244.207271 60.331866 
L 244.694984 63.26302 
L 245.020127 64.164808 
L 245.345269 64.164808 
L 245.832982 64.841263 
L 245.995553 65.292157 
L 246.320696 67.321294 
L 246.483267 67.095731 
L 246.645838 66.644838 
L 246.808409 66.644838 
L 246.97098 66.8704 
L 247.458693 69.124868 
L 248.271549 71.154005 
L 248.596691 71.605129 
L 248.921834 73.859597 
L 249.084405 74.085159 
L 249.409547 74.085159 
L 249.734689 73.634266 
L 249.89726 73.634266 
L 250.222403 75.43784 
L 250.384974 75.212278 
L 250.547545 75.663402 
L 250.872687 78.819889 
L 251.035258 78.594326 
L 251.197829 78.143433 
L 251.522972 79.270782 
L 251.685543 78.819889 
L 251.848114 78.819889 
L 252.173256 79.947007 
L 252.335827 79.947007 
L 252.498399 80.172569 
L 252.66097 80.172569 
L 252.823541 80.397901 
L 253.148683 80.397901 
L 253.311254 80.849025 
L 253.473825 80.849025 
L 253.636396 80.623463 
L 253.798968 80.849025 
L 253.961539 80.849025 
L 254.12411 80.623463 
L 254.286681 80.849025 
L 254.611823 81.750812 
L 254.774394 82.6526 
L 254.936965 82.878162 
L 255.099537 82.6526 
L 255.424679 83.329055 
L 255.749821 82.878162 
L 256.074963 84.681736 
L 256.237534 84.456405 
L 256.400106 84.230843 
L 256.725248 84.907298 
L 257.05039 84.456405 
L 257.375532 85.809086 
L 257.538104 85.583523 
L 257.700675 85.583523 
L 257.863246 86.259979 
L 258.025817 86.259979 
L 258.188388 86.485541 
L 258.51353 88.063785 
L 259.001244 88.063785 
L 259.163815 88.289116 
L 259.326386 88.740009 
L 259.488957 88.740009 
L 259.651528 88.965572 
L 259.814099 88.965572 
L 259.97667 88.740009 
L 260.139242 89.190903 
L 260.301813 88.965572 
L 260.626955 89.641797 
L 260.789526 89.190903 
L 260.952097 89.190903 
L 261.764953 91.445602 
L 261.927524 92.347389 
L 262.252666 91.896496 
L 262.577809 93.249407 
L 262.74038 93.023845 
L 263.065522 93.474739 
L 263.228093 93.249407 
L 263.553235 93.249407 
L 263.715806 93.700301 
L 263.878378 93.700301 
L 264.040949 93.249407 
L 264.20352 93.249407 
L 264.528662 93.925632 
L 264.853804 93.249407 
L 265.178947 93.925632 
L 265.341518 93.700301 
L 265.504089 93.700301 
L 265.66666 94.151194 
L 265.991802 93.700301 
L 266.154373 93.925632 
L 266.479516 95.278544 
L 266.642087 95.278544 
L 266.804658 95.503875 
L 266.967229 95.503875 
L 267.1298 95.052982 
L 267.292371 95.052982 
L 267.454942 95.503875 
L 267.617514 96.405662 
L 267.780085 96.631225 
L 267.942656 96.180331 
L 268.267798 96.856556 
L 268.59294 96.405662 
L 268.755511 96.405662 
L 269.080654 97.30768 
L 269.243225 96.856556 
L 269.405796 96.856556 
L 269.730938 97.533012 
L 270.05608 96.856556 
L 270.381223 97.533012 
L 270.706365 96.856556 
L 271.031507 97.758574 
L 271.194078 97.758574 
L 271.35665 97.533012 
L 271.681792 98.209468 
L 271.844363 97.983905 
L 272.006934 98.209468 
L 272.169505 98.885924 
L 272.332076 98.885924 
L 272.494647 98.434799 
L 272.657219 98.434799 
L 272.982361 99.787711 
L 273.307503 99.787711 
L 273.632645 100.464167 
L 273.957788 100.464167 
L 274.120359 100.689498 
L 274.28293 100.464167 
L 274.445501 100.464167 
L 274.608072 100.689498 
L 274.933214 101.365954 
L 275.095785 101.140392 
L 275.258357 101.365954 
L 275.420928 102.042179 
L 275.74607 101.591285 
L 275.908641 102.042179 
L 276.396355 102.042179 
L 276.721497 102.718635 
L 277.046639 102.267741 
L 277.20921 101.816847 
L 277.534352 103.845984 
L 277.696924 103.845984 
L 277.859495 103.620422 
L 278.184637 104.52244 
L 278.509779 103.39509 
L 278.834921 104.52244 
L 279.160064 103.620422 
L 279.322635 104.071315 
L 279.485206 104.071315 
L 279.810348 103.620422 
L 280.135491 104.52244 
L 280.298062 104.071315 
L 280.460633 104.071315 
L 280.785775 105.198665 
L 281.110917 104.296878 
L 281.43606 104.973333 
L 281.598631 104.747771 
L 281.761202 104.296878 
L 282.086344 104.973333 
L 282.411486 104.071315 
L 282.736629 105.198665 
L 283.061771 104.296878 
L 283.386913 105.424227 
L 283.549484 105.424227 
L 283.874626 106.100683 
L 284.037198 106.326014 
L 284.36234 105.875121 
L 284.687482 106.551576 
L 285.012624 105.649558 
L 285.337767 105.649558 
L 285.500338 105.875121 
L 285.662909 105.649558 
L 285.988051 105.649558 
L 286.475765 106.776908 
L 286.638336 107.00247 
L 286.800907 106.551576 
L 286.963478 106.776908 
L 287.28862 106.776908 
L 287.613762 105.875121 
L 287.776334 105.875121 
L 287.938905 106.100683 
L 288.264047 107.453364 
L 288.426618 107.227801 
L 288.75176 106.326014 
L 288.914331 106.551576 
L 289.076903 107.678926 
L 289.239474 107.904257 
L 289.402045 107.227801 
L 289.564616 107.227801 
L 289.727187 108.129819 
L 290.052329 107.227801 
L 290.377472 108.355151 
L 290.540043 108.129819 
L 290.702614 108.129819 
L 290.865185 108.355151 
L 291.027756 108.355151 
L 291.190327 108.129819 
L 291.678041 109.256938 
L 291.840612 109.4825 
L 292.003183 109.933394 
L 292.165754 110.835181 
L 292.328325 110.835181 
L 292.490896 109.933394 
L 292.816039 109.933394 
L 292.97861 109.708063 
L 293.141181 109.256938 
L 293.303752 109.4825 
L 293.466323 109.4825 
L 293.628894 110.384287 
L 293.791465 110.60985 
L 293.954037 110.384287 
L 294.279179 111.286075 
L 294.604321 110.835181 
L 294.766892 110.835181 
L 295.092034 111.737199 
L 295.417177 110.835181 
L 295.579748 111.286075 
L 295.742319 111.286075 
L 295.90489 110.835181 
L 296.067461 111.060743 
L 296.230032 111.737199 
L 296.392603 111.737199 
L 296.555175 111.286075 
L 296.717746 111.286075 
L 296.880317 111.737199 
L 297.042888 111.737199 
L 297.205459 111.286075 
L 297.36803 111.286075 
L 297.530601 111.737199 
L 297.693172 111.737199 
L 297.855744 111.286075 
L 298.018315 111.286075 
L 298.180886 111.737199 
L 298.343457 111.737199 
L 298.506028 111.286075 
L 298.668599 111.286075 
L 298.83117 111.737199 
L 298.993742 111.737199 
L 299.156313 111.286075 
L 299.318884 111.286075 
L 299.481455 111.737199 
L 299.644026 111.737199 
L 299.806597 111.286075 
L 299.969168 111.286075 
L 300.131739 111.737199 
L 300.294311 111.737199 
L 300.456882 111.286075 
L 300.619453 111.286075 
L 300.782024 111.737199 
L 300.944595 111.737199 
L 301.107166 111.286075 
L 301.269737 111.286075 
L 301.59488 112.188093 
L 301.920022 111.286075 
L 302.245164 111.962531 
L 302.407735 111.511637 
L 302.570306 111.511637 
L 302.732877 112.188093 
L 302.895449 112.188093 
L 303.220591 111.286075 
L 303.545733 112.413424 
L 303.870875 111.737199 
L 304.033447 112.413424 
L 304.196018 112.413424 
L 304.52116 111.511637 
L 304.683731 111.962531 
L 305.008873 111.962531 
L 305.171444 112.188093 
L 305.334016 112.864318 
L 305.659158 112.413424 
L 306.146871 113.08988 
L 306.309442 112.864318 
L 306.634585 113.540774 
L 306.797156 113.08988 
L 307.122298 113.08988 
L 307.284869 113.315442 
L 307.44744 113.315442 
L 307.610011 112.864318 
L 307.935154 113.991667 
L 308.260296 112.864318 
L 308.585438 113.315442 
L 308.748009 113.08988 
L 309.073152 113.991667 
L 309.398294 113.991667 
L 309.560865 113.766336 
L 309.886007 114.442561 
L 310.048578 113.766336 
L 310.211149 113.766336 
L 310.536292 115.344579 
L 310.698863 115.344579 
L 311.349147 113.766336 
L 311.999432 115.344579 
L 312.162003 114.893685 
L 312.324574 114.893685 
L 312.487145 115.119017 
L 312.649716 114.893685 
L 312.974859 114.893685 
L 313.13743 115.119017 
L 313.625143 114.442561 
L 313.950285 115.795472 
L 314.112857 146.683646 
L 314.437999 220.860353 
L 314.60057 228.976946 
L 314.925712 230.329719 
L 315.088283 230.78064 
L 315.413426 230.329719 
L 315.575997 233.711638 
L 316.06371 274.971071 
L 316.226281 276.098421 
L 316.388852 276.323752 
L 316.551423 276.774646 
L 316.713995 276.549314 
L 316.876566 275.647527 
L 317.039137 277.451102 
L 317.689421 290.978833 
L 317.851993 291.204164 
L 318.177135 291.204164 
L 318.502277 289.625921 
L 318.664848 290.52794 
L 318.98999 294.135319 
L 319.152562 294.586213 
L 319.315133 294.586213 
L 320.127988 290.753271 
L 320.290559 290.978833 
L 320.453131 291.88062 
L 320.615702 291.88062 
L 320.778273 290.978833 
L 321.103415 290.978833 
L 321.265986 290.52794 
L 321.591129 288.498803 
L 322.078842 286.92056 
L 322.241413 286.694998 
L 322.403984 286.244104 
L 322.566555 286.244104 
L 322.729126 286.469666 
L 322.891698 286.244104 
L 323.21684 284.665861 
L 323.379411 284.214967 
L 323.541982 284.214967 
L 323.867124 283.31318 
L 324.192267 283.764074 
L 324.354838 283.764074 
L 324.517409 282.862287 
L 324.842551 280.382025 
L 325.167693 279.480238 
L 325.330264 279.705801 
L 325.655407 280.382025 
L 325.817978 279.931132 
L 326.14312 278.352889 
L 326.793405 276.098421 
L 326.955976 276.323752 
L 327.118547 276.098421 
L 327.443689 275.421965 
L 327.931403 275.421965 
L 328.093974 274.971071 
L 328.419116 273.392828 
L 328.744258 272.265479 
L 328.906829 272.265479 
L 329.231972 271.814585 
L 329.394543 271.814585 
L 329.557114 271.589023 
L 329.719685 271.589023 
L 330.044827 271.13813 
L 330.207398 270.461905 
L 330.532541 270.461905 
L 330.695112 270.236342 
L 331.182825 268.883662 
L 331.345396 268.883662 
L 331.83311 268.207206 
L 332.158252 268.658099 
L 332.320823 268.658099 
L 332.645965 267.756312 
L 333.133679 268.432768 
L 333.29625 267.981643 
L 333.621392 266.178069 
L 333.783963 265.952507 
L 334.109105 264.825388 
L 334.271677 265.05072 
L 334.596819 264.599826 
L 335.084532 264.599826 
L 335.247103 264.374264 
L 335.572246 264.374264 
L 335.734817 264.148932 
L 336.059959 264.148932 
L 336.710244 261.668902 
L 336.872815 261.668902 
L 337.035386 261.894234 
L 338.010813 261.894234 
L 338.335955 261.44334 
L 338.661097 261.894234 
L 339.14881 261.218009 
L 339.311382 260.541553 
L 339.636524 261.44334 
L 339.961666 260.315991 
L 340.286808 261.44334 
L 340.611951 260.766884 
L 340.774522 260.992446 
L 341.099664 259.865097 
L 341.262235 258.96331 
L 341.587377 258.96331 
L 341.749949 259.188872 
L 342.075091 257.610629 
L 342.237662 257.385067 
L 342.562804 257.83596 
L 343.050518 257.83596 
L 343.37566 257.385067 
L 344.676229 257.385067 
L 344.8388 257.159504 
L 345.001371 257.385067 
L 345.326513 257.385067 
L 345.489085 257.159504 
L 345.814227 256.483279 
L 345.976798 256.708611 
L 346.30194 256.032386 
L 346.464511 255.806824 
L 346.789654 256.483279 
L 347.439938 254.228604 
L 347.602509 254.003157 
L 347.76508 254.228604 
L 347.927651 254.228604 
L 348.090223 254.454074 
L 348.252794 254.90499 
L 348.415365 254.67952 
L 348.577936 254.228604 
L 348.740507 254.228604 
L 348.903078 254.003157 
L 349.228221 253.32677 
L 349.390792 253.32677 
L 349.553363 253.1013 
L 349.715934 252.424914 
L 349.878505 252.424914 
L 350.041076 252.199467 
L 350.203647 252.424914 
L 350.366218 252.199467 
L 350.52879 252.199467 
L 350.691361 251.973997 
L 351.016503 252.424914 
L 351.179074 252.424914 
L 351.341645 252.199467 
L 351.666787 251.072141 
L 351.829359 251.297611 
L 351.99193 251.297611 
L 352.154501 251.072141 
L 352.479643 250.395777 
L 352.642214 250.170307 
L 354.755639 250.170307 
L 354.91821 249.719391 
L 355.243352 250.170307 
L 355.405923 249.944837 
L 355.568495 249.493921 
L 355.731066 249.719391 
L 355.893637 249.719391 
L 356.056208 249.493921 
L 356.38135 249.493921 
L 356.543921 249.043004 
L 356.869064 249.493921 
L 357.194206 249.043004 
L 357.519348 248.141148 
L 358.007062 248.141148 
L 358.169633 247.915701 
L 358.494775 247.239314 
L 358.657346 247.013844 
L 358.819917 247.013844 
L 359.145059 247.915701 
L 359.307631 247.690231 
L 359.632773 247.013844 
L 359.795344 246.788398 
L 360.120486 247.464761 
L 360.283057 247.464761 
L 360.445628 247.239314 
L 360.770771 247.690231 
L 361.095913 247.013844 
L 361.421055 246.562928 
L 361.746197 247.464761 
L 361.908769 247.464761 
L 362.233911 246.788398 
L 362.396482 246.562928 
L 362.559053 246.562928 
L 362.721624 246.788398 
L 362.884195 246.562928 
L 363.046767 246.112011 
L 363.209338 246.562928 
L 363.53448 246.562928 
L 363.859622 245.435624 
L 364.022193 245.210155 
L 364.347336 246.562928 
L 364.509907 246.112011 
L 364.672478 245.210155 
L 364.835049 245.435624 
L 364.99762 246.112011 
L 365.160191 246.112011 
L 365.647905 244.984708 
L 365.810476 245.661094 
L 365.973047 245.435624 
L 366.298189 244.082851 
L 366.46076 244.308321 
L 366.623331 244.308321 
L 366.785902 244.082851 
L 366.948474 244.082851 
L 367.111045 244.533768 
L 367.273616 244.533768 
L 367.598758 243.857381 
L 367.9239 243.857381 
L 368.249043 244.308321 
L 368.736756 243.631935 
L 368.899327 243.857381 
L 369.061898 243.857381 
L 369.224469 243.406465 
L 369.549612 243.406465 
L 369.874754 244.082851 
L 370.037325 243.631935 
L 370.362467 243.631935 
L 370.525038 243.406465 
L 370.850181 243.406465 
L 371.175323 243.857381 
L 371.337894 243.857381 
L 371.663036 243.406465 
L 371.825608 243.406465 
L 371.988179 243.181018 
L 372.15075 243.181018 
L 372.313321 243.631935 
L 372.638463 243.181018 
L 372.801034 243.631935 
L 372.963605 243.406465 
L 373.126177 242.504631 
L 373.451319 243.406465 
L 373.939032 243.406465 
L 374.101603 243.631935 
L 374.264174 243.406465 
L 374.426746 243.406465 
L 374.589317 243.181018 
L 374.751888 243.181018 
L 374.914459 243.631935 
L 375.239601 242.730078 
L 375.564743 243.631935 
L 375.727315 243.406465 
L 376.052457 241.602775 
L 376.54017 242.955548 
L 376.702741 243.857381 
L 377.027884 240.926388 
L 377.515597 242.504631 
L 377.678168 242.053715 
L 378.00331 242.504631 
L 378.165882 242.053715 
L 378.328453 240.926388 
L 378.491024 241.151858 
L 378.653595 242.279161 
L 378.816166 242.053715 
L 379.141308 240.475472 
L 379.303879 239.573638 
L 379.466451 240.024555 
L 379.629022 240.926388 
L 379.791593 240.700941 
L 380.279306 239.573638 
L 380.929591 241.151858 
L 381.254733 239.122698 
L 381.417304 240.024555 
L 381.579875 240.250002 
L 381.742446 239.799085 
L 381.905018 238.897252 
L 382.23016 238.446335 
L 382.392731 238.671782 
L 382.555302 238.446335 
L 382.717873 237.995395 
L 382.880444 237.995395 
L 383.043015 238.446335 
L 383.368158 237.995395 
L 383.530729 237.995395 
L 383.6933 238.220865 
L 383.855871 238.220865 
L 384.018442 237.769948 
L 384.181013 237.995395 
L 384.343584 238.446335 
L 384.506156 238.220865 
L 384.668727 238.220865 
L 384.831298 237.769948 
L 384.993869 237.995395 
L 385.319011 238.897252 
L 385.644154 237.995395 
L 385.806725 237.995395 
L 385.969296 237.544479 
L 386.131867 237.769948 
L 386.294438 238.446335 
L 386.457009 238.220865 
L 386.61958 237.544479 
L 386.782151 237.544479 
L 387.107294 238.446335 
L 387.432436 237.769948 
L 387.595007 237.995395 
L 387.757578 237.995395 
L 387.920149 237.544479 
L 388.08272 237.544479 
L 388.245292 237.995395 
L 388.407863 237.995395 
L 388.570434 237.544479 
L 388.733005 237.544479 
L 388.895576 237.995395 
L 389.058147 237.995395 
L 389.220718 237.544479 
L 389.383289 237.544479 
L 389.545861 237.995395 
L 389.708432 237.995395 
L 389.871003 237.544479 
L 390.033574 237.544479 
L 390.196145 237.995395 
L 390.358716 237.995395 
L 390.521287 237.544479 
L 390.683859 237.544479 
L 390.84643 237.995395 
L 391.009001 237.995395 
L 391.171572 237.544479 
L 391.334143 237.544479 
L 391.496714 237.995395 
L 391.659285 237.995395 
L 391.821856 237.544479 
L 391.984428 237.544479 
L 392.146999 237.995395 
L 392.30957 237.995395 
L 392.472141 237.544479 
L 392.634712 237.544479 
L 392.797283 237.995395 
L 392.959854 237.995395 
L 393.122425 237.544479 
L 393.284997 237.544479 
L 393.447568 237.995395 
L 393.610139 237.995395 
L 393.77271 237.544479 
L 393.935281 237.544479 
L 394.097852 237.995395 
L 394.260423 237.995395 
L 394.422994 237.544479 
L 394.585566 237.544479 
L 394.748137 237.995395 
L 394.910708 237.995395 
L 395.073279 237.544479 
L 395.23585 237.544479 
L 395.398421 237.995395 
L 395.560992 237.995395 
L 395.723564 237.544479 
L 395.886135 237.544479 
L 396.048706 237.995395 
L 396.211277 237.995395 
L 396.373848 237.544479 
L 396.536419 237.544479 
L 396.69899 237.995395 
L 396.861561 237.995395 
L 397.024133 237.544479 
L 397.186704 237.544479 
L 397.349275 237.995395 
L 397.511846 237.995395 
L 397.836988 237.093562 
L 397.999559 237.769948 
L 398.16213 237.769948 
L 398.324702 237.319009 
L 398.487273 237.319009 
L 398.487273 237.319009 
" style="fill:none;stroke:#1f77b4;stroke-linecap:square;stroke-width:1.5;"/>
   </g>
   <g id="patch_3">
    <path d="M 57.6 307.584 
L 57.6 41.472 
" style="fill:none;stroke:#000000;stroke-linecap:square;stroke-linejoin:miter;stroke-width:0.8;"/>
   </g>
   <g id="patch_4">
    <path d="M 414.72 307.584 
L 414.72 41.472 
" style="fill:none;stroke:#000000;stroke-linecap:square;stroke-linejoin:miter;stroke-width:0.8;"/>
   </g>
   <g id="patch_5">
    <path d="M 57.6 307.584 
L 414.72 307.584 
" style="fill:none;stroke:#000000;stroke-linecap:square;stroke-linejoin:miter;stroke-width:0.8;"/>
   </g>
   <g id="patch_6">
    <path d="M 57.6 41.472 
L 414.72 41.472 
" style="fill:none;stroke:#000000;stroke-linecap:square;stroke-linejoin:miter;stroke-width:0.8;"/>
   </g>
   <g id="text_15">
    <!-- DSO-Waveform (CH1) -->
    <defs>
     <path d="M 19.671875 64.796875 
L 19.671875 8.109375 
L 31.59375 8.109375 
Q 46.6875 8.109375 53.6875 14.9375 
Q 60.6875 21.78125 60.6875 36.53125 
Q 60.6875 51.171875 53.6875 57.984375 
Q 46.6875 64.796875 31.59375 64.796875 
z
M 9.8125 72.90625 
L 30.078125 72.90625 
Q 51.265625 72.90625 61.171875 64.09375 
Q 71.09375 55.28125 71.09375 36.53125 
Q 71.09375 17.671875 61.125 8.828125 
Q 51.171875 0 30.078125 0 
L 9.8125 0 
z
" id="DejaVuSans-68"/>
     <path d="M 53.515625 70.515625 
L 53.515625 60.890625 
Q 47.90625 63.578125 42.921875 64.890625 
Q 37.9375 66.21875 33.296875 66.21875 
Q 25.25 66.21875 20.875 63.09375 
Q 16.5 59.96875 16.5 54.203125 
Q 16.5 49.359375 19.40625 46.890625 
Q 22.3125 44.4375 30.421875 42.921875 
L 36.375 41.703125 
Q 47.40625 39.59375 52.65625 34.296875 
Q 57.90625 29 57.90625 20.125 
Q 57.90625 9.515625 50.796875 4.046875 
Q 43.703125 -1.421875 29.984375 -1.421875 
Q 24.8125 -1.421875 18.96875 -0.25 
Q 13.140625 0.921875 6.890625 3.21875 
L 6.890625 13.375 
Q 12.890625 10.015625 18.65625 8.296875 
Q 24.421875 6.59375 29.984375 6.59375 
Q 38.421875 6.59375 43.015625 9.90625 
Q 47.609375 13.234375 47.609375 19.390625 
Q 47.609375 24.75 44.3125 27.78125 
Q 41.015625 30.8125 33.5 32.328125 
L 27.484375 33.5 
Q 16.453125 35.6875 11.515625 40.375 
Q 6.59375 45.0625 6.59375 53.421875 
Q 6.59375 63.09375 13.40625 68.65625 
Q 20.21875 74.21875 32.171875 74.21875 
Q 37.3125 74.21875 42.625 73.28125 
Q 47.953125 72.359375 53.515625 70.515625 
z
" id="DejaVuSans-83"/>
     <path d="M 4.890625 31.390625 
L 31.203125 31.390625 
L 31.203125 23.390625 
L 4.890625 23.390625 
z
" id="DejaVuSans-45"/>
     <path d="M 3.328125 72.90625 
L 13.28125 72.90625 
L 28.609375 11.28125 
L 43.890625 72.90625 
L 54.984375 72.90625 
L 70.3125 11.28125 
L 85.59375 72.90625 
L 95.609375 72.90625 
L 77.296875 0 
L 64.890625 0 
L 49.515625 63.28125 
L 33.984375 0 
L 21.578125 0 
z
" id="DejaVuSans-87"/>
     <path d="M 37.109375 75.984375 
L 37.109375 68.5 
L 28.515625 68.5 
Q 23.6875 68.5 21.796875 66.546875 
Q 19.921875 64.59375 19.921875 59.515625 
L 19.921875 54.6875 
L 34.71875 54.6875 
L 34.71875 47.703125 
L 19.921875 47.703125 
L 19.921875 0 
L 10.890625 0 
L 10.890625 47.703125 
L 2.296875 47.703125 
L 2.296875 54.6875 
L 10.890625 54.6875 
L 10.890625 58.5 
Q 10.890625 67.625 15.140625 71.796875 
Q 19.390625 75.984375 28.609375 75.984375 
z
" id="DejaVuSans-102"/>
     <path d="M 41.109375 46.296875 
Q 39.59375 47.171875 37.8125 47.578125 
Q 36.03125 48 33.890625 48 
Q 26.265625 48 22.1875 43.046875 
Q 18.109375 38.09375 18.109375 28.8125 
L 18.109375 0 
L 9.078125 0 
L 9.078125 54.6875 
L 18.109375 54.6875 
L 18.109375 46.1875 
Q 20.953125 51.171875 25.484375 53.578125 
Q 30.03125 56 36.53125 56 
Q 37.453125 56 38.578125 55.875 
Q 39.703125 55.765625 41.0625 55.515625 
z
" id="DejaVuSans-114"/>
     <path d="M 64.40625 67.28125 
L 64.40625 56.890625 
Q 59.421875 61.53125 53.78125 63.8125 
Q 48.140625 66.109375 41.796875 66.109375 
Q 29.296875 66.109375 22.65625 58.46875 
Q 16.015625 50.828125 16.015625 36.375 
Q 16.015625 21.96875 22.65625 14.328125 
Q 29.296875 6.6875 41.796875 6.6875 
Q 48.140625 6.6875 53.78125 8.984375 
Q 59.421875 11.28125 64.40625 15.921875 
L 64.40625 5.609375 
Q 59.234375 2.09375 53.4375 0.328125 
Q 47.65625 -1.421875 41.21875 -1.421875 
Q 24.65625 -1.421875 15.125 8.703125 
Q 5.609375 18.84375 5.609375 36.375 
Q 5.609375 53.953125 15.125 64.078125 
Q 24.65625 74.21875 41.21875 74.21875 
Q 47.75 74.21875 53.53125 72.484375 
Q 59.328125 70.75 64.40625 67.28125 
z
" id="DejaVuSans-67"/>
     <path d="M 9.8125 72.90625 
L 19.671875 72.90625 
L 19.671875 43.015625 
L 55.515625 43.015625 
L 55.515625 72.90625 
L 65.375 72.90625 
L 65.375 0 
L 55.515625 0 
L 55.515625 34.71875 
L 19.671875 34.71875 
L 19.671875 0 
L 9.8125 0 
z
" id="DejaVuSans-72"/>
    </defs>
    <g transform="translate(170.796562 35.472)scale(0.12 -0.12)">
     <use xlink:href="#DejaVuSans-68"/>
     <use x="77.001953" xlink:href="#DejaVuSans-83"/>
     <use x="140.478516" xlink:href="#DejaVuSans-79"/>
     <use x="219.220703" xlink:href="#DejaVuSans-45"/>
     <use x="255.242188" xlink:href="#DejaVuSans-87"/>
     <use x="354.025391" xlink:href="#DejaVuSans-97"/>
     <use x="415.304688" xlink:href="#DejaVuSans-118"/>
     <use x="474.484375" xlink:href="#DejaVuSans-101"/>
     <use x="536.007812" xlink:href="#DejaVuSans-102"/>
     <use x="571.212891" xlink:href="#DejaVuSans-111"/>
     <use x="632.394531" xlink:href="#DejaVuSans-114"/>
     <use x="673.492188" xlink:href="#DejaVuSans-109"/>
     <use x="770.904297" xlink:href="#DejaVuSans-32"/>
     <use x="802.691406" xlink:href="#DejaVuSans-40"/>
     <use x="841.705078" xlink:href="#DejaVuSans-67"/>
     <use x="911.529297" xlink:href="#DejaVuSans-72"/>
     <use x="986.724609" xlink:href="#DejaVuSans-49"/>
     <use x="1050.347656" xlink:href="#DejaVuSans-41"/>
    </g>
   </g>
  </g>
 </g>
 <defs>
  <clipPath id="p9544fd8303">
   <rect height="266.112" width="357.12" x="57.6" y="41.472"/>
  </clipPath>
 </defs>
</svg>
