<?xml version="1.0" encoding="utf-8" standalone="no"?>
<!DOCTYPE svg PUBLIC "-//W3C//DTD SVG 1.1//EN"
  "http://www.w3.org/Graphics/SVG/1.1/DTD/svg11.dtd">
<!-- Created with matplotlib (https://matplotlib.org/) -->
<svg height="345.6pt" version="1.1" viewBox="0 0 460.8 345.6" width="460.8pt" xmlns="http://www.w3.org/2000/svg" xmlns:xlink="http://www.w3.org/1999/xlink">
 <defs>
  <style type="text/css">
*{stroke-linecap:butt;stroke-linejoin:round;}
  </style>
 </defs>
 <g id="figure_1">
  <g id="patch_1">
   <path d="M 0 345.6 
L 460.8 345.6 
L 460.8 0 
L 0 0 
z
" style="fill:#ffffff;"/>
  </g>
  <g id="axes_1">
   <g id="patch_2">
    <path d="M 57.6 307.584 
L 414.72 307.584 
L 414.72 41.472 
L 57.6 41.472 
z
" style="fill:#ffffff;"/>
   </g>
   <g id="matplotlib.axis_1">
    <g id="xtick_1">
     <g id="line2d_1">
      <defs>
       <path d="M 0 0 
L 0 3.5 
" id="m6ce14bdcde" style="stroke:#000000;stroke-width:0.8;"/>
      </defs>
      <g>
       <use style="stroke:#000000;stroke-width:0.8;" x="73.832727" xlink:href="#m6ce14bdcde" y="307.584"/>
      </g>
     </g>
     <g id="text_1">
      <!-- 0.000000 -->
      <defs>
       <path d="M 31.78125 66.40625 
Q 24.171875 66.40625 20.328125 58.90625 
Q 16.5 51.421875 16.5 36.375 
Q 16.5 21.390625 20.328125 13.890625 
Q 24.171875 6.390625 31.78125 6.390625 
Q 39.453125 6.390625 43.28125 13.890625 
Q 47.125 21.390625 47.125 36.375 
Q 47.125 51.421875 43.28125 58.90625 
Q 39.453125 66.40625 31.78125 66.40625 
z
M 31.78125 74.21875 
Q 44.046875 74.21875 50.515625 64.515625 
Q 56.984375 54.828125 56.984375 36.375 
Q 56.984375 17.96875 50.515625 8.265625 
Q 44.046875 -1.421875 31.78125 -1.421875 
Q 19.53125 -1.421875 13.0625 8.265625 
Q 6.59375 17.96875 6.59375 36.375 
Q 6.59375 54.828125 13.0625 64.515625 
Q 19.53125 74.21875 31.78125 74.21875 
z
" id="DejaVuSans-48"/>
       <path d="M 10.6875 12.40625 
L 21 12.40625 
L 21 0 
L 10.6875 0 
z
" id="DejaVuSans-46"/>
      </defs>
      <g transform="translate(31.46994 345.022252)rotate(-30)scale(0.1 -0.1)">
       <use xlink:href="#DejaVuSans-48"/>
       <use x="63.623047" xlink:href="#DejaVuSans-46"/>
       <use x="95.410156" xlink:href="#DejaVuSans-48"/>
       <use x="159.033203" xlink:href="#DejaVuSans-48"/>
       <use x="222.65625" xlink:href="#DejaVuSans-48"/>
       <use x="286.279297" xlink:href="#DejaVuSans-48"/>
       <use x="349.902344" xlink:href="#DejaVuSans-48"/>
       <use x="413.525391" xlink:href="#DejaVuSans-48"/>
      </g>
     </g>
    </g>
    <g id="xtick_2">
     <g id="line2d_2">
      <g>
       <use style="stroke:#000000;stroke-width:0.8;" x="138.861179" xlink:href="#m6ce14bdcde" y="307.584"/>
      </g>
     </g>
     <g id="text_2">
      <!-- 0.000002 -->
      <defs>
       <path d="M 19.1875 8.296875 
L 53.609375 8.296875 
L 53.609375 0 
L 7.328125 0 
L 7.328125 8.296875 
Q 12.9375 14.109375 22.625 23.890625 
Q 32.328125 33.6875 34.8125 36.53125 
Q 39.546875 41.84375 41.421875 45.53125 
Q 43.3125 49.21875 43.3125 52.78125 
Q 43.3125 58.59375 39.234375 62.25 
Q 35.15625 65.921875 28.609375 65.921875 
Q 23.96875 65.921875 18.8125 64.3125 
Q 13.671875 62.703125 7.8125 59.421875 
L 7.8125 69.390625 
Q 13.765625 71.78125 18.9375 73 
Q 24.125 74.21875 28.421875 74.21875 
Q 39.75 74.21875 46.484375 68.546875 
Q 53.21875 62.890625 53.21875 53.421875 
Q 53.21875 48.921875 51.53125 44.890625 
Q 49.859375 40.875 45.40625 35.40625 
Q 44.1875 33.984375 37.640625 27.21875 
Q 31.109375 20.453125 19.1875 8.296875 
z
" id="DejaVuSans-50"/>
      </defs>
      <g transform="translate(96.498392 345.022252)rotate(-30)scale(0.1 -0.1)">
       <use xlink:href="#DejaVuSans-48"/>
       <use x="63.623047" xlink:href="#DejaVuSans-46"/>
       <use x="95.410156" xlink:href="#DejaVuSans-48"/>
       <use x="159.033203" xlink:href="#DejaVuSans-48"/>
       <use x="222.65625" xlink:href="#DejaVuSans-48"/>
       <use x="286.279297" xlink:href="#DejaVuSans-48"/>
       <use x="349.902344" xlink:href="#DejaVuSans-48"/>
       <use x="413.525391" xlink:href="#DejaVuSans-50"/>
      </g>
     </g>
    </g>
    <g id="xtick_3">
     <g id="line2d_3">
      <g>
       <use style="stroke:#000000;stroke-width:0.8;" x="203.889631" xlink:href="#m6ce14bdcde" y="307.584"/>
      </g>
     </g>
     <g id="text_3">
      <!-- 0.000004 -->
      <defs>
       <path d="M 37.796875 64.3125 
L 12.890625 25.390625 
L 37.796875 25.390625 
z
M 35.203125 72.90625 
L 47.609375 72.90625 
L 47.609375 25.390625 
L 58.015625 25.390625 
L 58.015625 17.1875 
L 47.609375 17.1875 
L 47.609375 0 
L 37.796875 0 
L 37.796875 17.1875 
L 4.890625 17.1875 
L 4.890625 26.703125 
z
" id="DejaVuSans-52"/>
      </defs>
      <g transform="translate(161.526844 345.022252)rotate(-30)scale(0.1 -0.1)">
       <use xlink:href="#DejaVuSans-48"/>
       <use x="63.623047" xlink:href="#DejaVuSans-46"/>
       <use x="95.410156" xlink:href="#DejaVuSans-48"/>
       <use x="159.033203" xlink:href="#DejaVuSans-48"/>
       <use x="222.65625" xlink:href="#DejaVuSans-48"/>
       <use x="286.279297" xlink:href="#DejaVuSans-48"/>
       <use x="349.902344" xlink:href="#DejaVuSans-48"/>
       <use x="413.525391" xlink:href="#DejaVuSans-52"/>
      </g>
     </g>
    </g>
    <g id="xtick_4">
     <g id="line2d_4">
      <g>
       <use style="stroke:#000000;stroke-width:0.8;" x="268.918083" xlink:href="#m6ce14bdcde" y="307.584"/>
      </g>
     </g>
     <g id="text_4">
      <!-- 0.000006 -->
      <defs>
       <path d="M 33.015625 40.375 
Q 26.375 40.375 22.484375 35.828125 
Q 18.609375 31.296875 18.609375 23.390625 
Q 18.609375 15.53125 22.484375 10.953125 
Q 26.375 6.390625 33.015625 6.390625 
Q 39.65625 6.390625 43.53125 10.953125 
Q 47.40625 15.53125 47.40625 23.390625 
Q 47.40625 31.296875 43.53125 35.828125 
Q 39.65625 40.375 33.015625 40.375 
z
M 52.59375 71.296875 
L 52.59375 62.3125 
Q 48.875 64.0625 45.09375 64.984375 
Q 41.3125 65.921875 37.59375 65.921875 
Q 27.828125 65.921875 22.671875 59.328125 
Q 17.53125 52.734375 16.796875 39.40625 
Q 19.671875 43.65625 24.015625 45.921875 
Q 28.375 48.1875 33.59375 48.1875 
Q 44.578125 48.1875 50.953125 41.515625 
Q 57.328125 34.859375 57.328125 23.390625 
Q 57.328125 12.15625 50.6875 5.359375 
Q 44.046875 -1.421875 33.015625 -1.421875 
Q 20.359375 -1.421875 13.671875 8.265625 
Q 6.984375 17.96875 6.984375 36.375 
Q 6.984375 53.65625 15.1875 63.9375 
Q 23.390625 74.21875 37.203125 74.21875 
Q 40.921875 74.21875 44.703125 73.484375 
Q 48.484375 72.75 52.59375 71.296875 
z
" id="DejaVuSans-54"/>
      </defs>
      <g transform="translate(226.555295 345.022252)rotate(-30)scale(0.1 -0.1)">
       <use xlink:href="#DejaVuSans-48"/>
       <use x="63.623047" xlink:href="#DejaVuSans-46"/>
       <use x="95.410156" xlink:href="#DejaVuSans-48"/>
       <use x="159.033203" xlink:href="#DejaVuSans-48"/>
       <use x="222.65625" xlink:href="#DejaVuSans-48"/>
       <use x="286.279297" xlink:href="#DejaVuSans-48"/>
       <use x="349.902344" xlink:href="#DejaVuSans-48"/>
       <use x="413.525391" xlink:href="#DejaVuSans-54"/>
      </g>
     </g>
    </g>
    <g id="xtick_5">
     <g id="line2d_5">
      <g>
       <use style="stroke:#000000;stroke-width:0.8;" x="333.946534" xlink:href="#m6ce14bdcde" y="307.584"/>
      </g>
     </g>
     <g id="text_5">
      <!-- 0.000008 -->
      <defs>
       <path d="M 31.78125 34.625 
Q 24.75 34.625 20.71875 30.859375 
Q 16.703125 27.09375 16.703125 20.515625 
Q 16.703125 13.921875 20.71875 10.15625 
Q 24.75 6.390625 31.78125 6.390625 
Q 38.8125 6.390625 42.859375 10.171875 
Q 46.921875 13.96875 46.921875 20.515625 
Q 46.921875 27.09375 42.890625 30.859375 
Q 38.875 34.625 31.78125 34.625 
z
M 21.921875 38.8125 
Q 15.578125 40.375 12.03125 44.71875 
Q 8.5 49.078125 8.5 55.328125 
Q 8.5 64.0625 14.71875 69.140625 
Q 20.953125 74.21875 31.78125 74.21875 
Q 42.671875 74.21875 48.875 69.140625 
Q 55.078125 64.0625 55.078125 55.328125 
Q 55.078125 49.078125 51.53125 44.71875 
Q 48 40.375 41.703125 38.8125 
Q 48.828125 37.15625 52.796875 32.3125 
Q 56.78125 27.484375 56.78125 20.515625 
Q 56.78125 9.90625 50.3125 4.234375 
Q 43.84375 -1.421875 31.78125 -1.421875 
Q 19.734375 -1.421875 13.25 4.234375 
Q 6.78125 9.90625 6.78125 20.515625 
Q 6.78125 27.484375 10.78125 32.3125 
Q 14.796875 37.15625 21.921875 38.8125 
z
M 18.3125 54.390625 
Q 18.3125 48.734375 21.84375 45.5625 
Q 25.390625 42.390625 31.78125 42.390625 
Q 38.140625 42.390625 41.71875 45.5625 
Q 45.3125 48.734375 45.3125 54.390625 
Q 45.3125 60.0625 41.71875 63.234375 
Q 38.140625 66.40625 31.78125 66.40625 
Q 25.390625 66.40625 21.84375 63.234375 
Q 18.3125 60.0625 18.3125 54.390625 
z
" id="DejaVuSans-56"/>
      </defs>
      <g transform="translate(291.583747 345.022252)rotate(-30)scale(0.1 -0.1)">
       <use xlink:href="#DejaVuSans-48"/>
       <use x="63.623047" xlink:href="#DejaVuSans-46"/>
       <use x="95.410156" xlink:href="#DejaVuSans-48"/>
       <use x="159.033203" xlink:href="#DejaVuSans-48"/>
       <use x="222.65625" xlink:href="#DejaVuSans-48"/>
       <use x="286.279297" xlink:href="#DejaVuSans-48"/>
       <use x="349.902344" xlink:href="#DejaVuSans-48"/>
       <use x="413.525391" xlink:href="#DejaVuSans-56"/>
      </g>
     </g>
    </g>
    <g id="xtick_6">
     <g id="line2d_6">
      <g>
       <use style="stroke:#000000;stroke-width:0.8;" x="398.974986" xlink:href="#m6ce14bdcde" y="307.584"/>
      </g>
     </g>
     <g id="text_6">
      <!-- 0.000010 -->
      <defs>
       <path d="M 12.40625 8.296875 
L 28.515625 8.296875 
L 28.515625 63.921875 
L 10.984375 60.40625 
L 10.984375 69.390625 
L 28.421875 72.90625 
L 38.28125 72.90625 
L 38.28125 8.296875 
L 54.390625 8.296875 
L 54.390625 0 
L 12.40625 0 
z
" id="DejaVuSans-49"/>
      </defs>
      <g transform="translate(356.612199 345.022252)rotate(-30)scale(0.1 -0.1)">
       <use xlink:href="#DejaVuSans-48"/>
       <use x="63.623047" xlink:href="#DejaVuSans-46"/>
       <use x="95.410156" xlink:href="#DejaVuSans-48"/>
       <use x="159.033203" xlink:href="#DejaVuSans-48"/>
       <use x="222.65625" xlink:href="#DejaVuSans-48"/>
       <use x="286.279297" xlink:href="#DejaVuSans-48"/>
       <use x="349.902344" xlink:href="#DejaVuSans-49"/>
       <use x="413.525391" xlink:href="#DejaVuSans-48"/>
      </g>
     </g>
    </g>
    <g id="text_7">
     <!-- time(s) -->
     <defs>
      <path d="M 18.3125 70.21875 
L 18.3125 54.6875 
L 36.8125 54.6875 
L 36.8125 47.703125 
L 18.3125 47.703125 
L 18.3125 18.015625 
Q 18.3125 11.328125 20.140625 9.421875 
Q 21.96875 7.515625 27.59375 7.515625 
L 36.8125 7.515625 
L 36.8125 0 
L 27.59375 0 
Q 17.1875 0 13.234375 3.875 
Q 9.28125 7.765625 9.28125 18.015625 
L 9.28125 47.703125 
L 2.6875 47.703125 
L 2.6875 54.6875 
L 9.28125 54.6875 
L 9.28125 70.21875 
z
" id="DejaVuSans-116"/>
      <path d="M 9.421875 54.6875 
L 18.40625 54.6875 
L 18.40625 0 
L 9.421875 0 
z
M 9.421875 75.984375 
L 18.40625 75.984375 
L 18.40625 64.59375 
L 9.421875 64.59375 
z
" id="DejaVuSans-105"/>
      <path d="M 52 44.1875 
Q 55.375 50.25 60.0625 53.125 
Q 64.75 56 71.09375 56 
Q 79.640625 56 84.28125 50.015625 
Q 88.921875 44.046875 88.921875 33.015625 
L 88.921875 0 
L 79.890625 0 
L 79.890625 32.71875 
Q 79.890625 40.578125 77.09375 44.375 
Q 74.3125 48.1875 68.609375 48.1875 
Q 61.625 48.1875 57.5625 43.546875 
Q 53.515625 38.921875 53.515625 30.90625 
L 53.515625 0 
L 44.484375 0 
L 44.484375 32.71875 
Q 44.484375 40.625 41.703125 44.40625 
Q 38.921875 48.1875 33.109375 48.1875 
Q 26.21875 48.1875 22.15625 43.53125 
Q 18.109375 38.875 18.109375 30.90625 
L 18.109375 0 
L 9.078125 0 
L 9.078125 54.6875 
L 18.109375 54.6875 
L 18.109375 46.1875 
Q 21.1875 51.21875 25.484375 53.609375 
Q 29.78125 56 35.6875 56 
Q 41.65625 56 45.828125 52.96875 
Q 50 49.953125 52 44.1875 
z
" id="DejaVuSans-109"/>
      <path d="M 56.203125 29.59375 
L 56.203125 25.203125 
L 14.890625 25.203125 
Q 15.484375 15.921875 20.484375 11.0625 
Q 25.484375 6.203125 34.421875 6.203125 
Q 39.59375 6.203125 44.453125 7.46875 
Q 49.3125 8.734375 54.109375 11.28125 
L 54.109375 2.78125 
Q 49.265625 0.734375 44.1875 -0.34375 
Q 39.109375 -1.421875 33.890625 -1.421875 
Q 20.796875 -1.421875 13.15625 6.1875 
Q 5.515625 13.8125 5.515625 26.8125 
Q 5.515625 40.234375 12.765625 48.109375 
Q 20.015625 56 32.328125 56 
Q 43.359375 56 49.78125 48.890625 
Q 56.203125 41.796875 56.203125 29.59375 
z
M 47.21875 32.234375 
Q 47.125 39.59375 43.09375 43.984375 
Q 39.0625 48.390625 32.421875 48.390625 
Q 24.90625 48.390625 20.390625 44.140625 
Q 15.875 39.890625 15.1875 32.171875 
z
" id="DejaVuSans-101"/>
      <path d="M 31 75.875 
Q 24.46875 64.65625 21.28125 53.65625 
Q 18.109375 42.671875 18.109375 31.390625 
Q 18.109375 20.125 21.3125 9.0625 
Q 24.515625 -2 31 -13.1875 
L 23.1875 -13.1875 
Q 15.875 -1.703125 12.234375 9.375 
Q 8.59375 20.453125 8.59375 31.390625 
Q 8.59375 42.28125 12.203125 53.3125 
Q 15.828125 64.359375 23.1875 75.875 
z
" id="DejaVuSans-40"/>
      <path d="M 44.28125 53.078125 
L 44.28125 44.578125 
Q 40.484375 46.53125 36.375 47.5 
Q 32.28125 48.484375 27.875 48.484375 
Q 21.1875 48.484375 17.84375 46.4375 
Q 14.5 44.390625 14.5 40.28125 
Q 14.5 37.15625 16.890625 35.375 
Q 19.28125 33.59375 26.515625 31.984375 
L 29.59375 31.296875 
Q 39.15625 29.25 43.1875 25.515625 
Q 47.21875 21.78125 47.21875 15.09375 
Q 47.21875 7.46875 41.1875 3.015625 
Q 35.15625 -1.421875 24.609375 -1.421875 
Q 20.21875 -1.421875 15.453125 -0.5625 
Q 10.6875 0.296875 5.421875 2 
L 5.421875 11.28125 
Q 10.40625 8.6875 15.234375 7.390625 
Q 20.0625 6.109375 24.8125 6.109375 
Q 31.15625 6.109375 34.5625 8.28125 
Q 37.984375 10.453125 37.984375 14.40625 
Q 37.984375 18.0625 35.515625 20.015625 
Q 33.0625 21.96875 24.703125 23.78125 
L 21.578125 24.515625 
Q 13.234375 26.265625 9.515625 29.90625 
Q 5.8125 33.546875 5.8125 39.890625 
Q 5.8125 47.609375 11.28125 51.796875 
Q 16.75 56 26.8125 56 
Q 31.78125 56 36.171875 55.265625 
Q 40.578125 54.546875 44.28125 53.078125 
z
" id="DejaVuSans-115"/>
      <path d="M 8.015625 75.875 
L 15.828125 75.875 
Q 23.140625 64.359375 26.78125 53.3125 
Q 30.421875 42.28125 30.421875 31.390625 
Q 30.421875 20.453125 26.78125 9.375 
Q 23.140625 -1.703125 15.828125 -13.1875 
L 8.015625 -13.1875 
Q 14.5 -2 17.703125 9.0625 
Q 20.90625 20.125 20.90625 31.390625 
Q 20.90625 42.671875 17.703125 53.65625 
Q 14.5 64.65625 8.015625 75.875 
z
" id="DejaVuSans-41"/>
     </defs>
     <g transform="translate(218.357656 358.421752)scale(0.1 -0.1)">
      <use xlink:href="#DejaVuSans-116"/>
      <use x="39.208984" xlink:href="#DejaVuSans-105"/>
      <use x="66.992188" xlink:href="#DejaVuSans-109"/>
      <use x="164.404297" xlink:href="#DejaVuSans-101"/>
      <use x="225.927734" xlink:href="#DejaVuSans-40"/>
      <use x="264.941406" xlink:href="#DejaVuSans-115"/>
      <use x="317.041016" xlink:href="#DejaVuSans-41"/>
     </g>
    </g>
   </g>
   <g id="matplotlib.axis_2">
    <g id="ytick_1">
     <g id="line2d_7">
      <defs>
       <path d="M 0 0 
L -3.5 0 
" id="m61e3850a9c" style="stroke:#000000;stroke-width:0.8;"/>
      </defs>
      <g>
       <use style="stroke:#000000;stroke-width:0.8;" x="57.6" xlink:href="#m61e3850a9c" y="291.137311"/>
      </g>
     </g>
     <g id="text_8">
      <!-- 0.0840 -->
      <g transform="translate(15.609375 294.936529)scale(0.1 -0.1)">
       <use xlink:href="#DejaVuSans-48"/>
       <use x="63.623047" xlink:href="#DejaVuSans-46"/>
       <use x="95.410156" xlink:href="#DejaVuSans-48"/>
       <use x="159.033203" xlink:href="#DejaVuSans-56"/>
       <use x="222.65625" xlink:href="#DejaVuSans-52"/>
       <use x="286.279297" xlink:href="#DejaVuSans-48"/>
      </g>
     </g>
    </g>
    <g id="ytick_2">
     <g id="line2d_8">
      <g>
       <use style="stroke:#000000;stroke-width:0.8;" x="57.6" xlink:href="#m61e3850a9c" y="260.171551"/>
      </g>
     </g>
     <g id="text_9">
      <!-- 0.0842 -->
      <g transform="translate(15.609375 263.970769)scale(0.1 -0.1)">
       <use xlink:href="#DejaVuSans-48"/>
       <use x="63.623047" xlink:href="#DejaVuSans-46"/>
       <use x="95.410156" xlink:href="#DejaVuSans-48"/>
       <use x="159.033203" xlink:href="#DejaVuSans-56"/>
       <use x="222.65625" xlink:href="#DejaVuSans-52"/>
       <use x="286.279297" xlink:href="#DejaVuSans-50"/>
      </g>
     </g>
    </g>
    <g id="ytick_3">
     <g id="line2d_9">
      <g>
       <use style="stroke:#000000;stroke-width:0.8;" x="57.6" xlink:href="#m61e3850a9c" y="229.205791"/>
      </g>
     </g>
     <g id="text_10">
      <!-- 0.0844 -->
      <g transform="translate(15.609375 233.005009)scale(0.1 -0.1)">
       <use xlink:href="#DejaVuSans-48"/>
       <use x="63.623047" xlink:href="#DejaVuSans-46"/>
       <use x="95.410156" xlink:href="#DejaVuSans-48"/>
       <use x="159.033203" xlink:href="#DejaVuSans-56"/>
       <use x="222.65625" xlink:href="#DejaVuSans-52"/>
       <use x="286.279297" xlink:href="#DejaVuSans-52"/>
      </g>
     </g>
    </g>
    <g id="ytick_4">
     <g id="line2d_10">
      <g>
       <use style="stroke:#000000;stroke-width:0.8;" x="57.6" xlink:href="#m61e3850a9c" y="198.240031"/>
      </g>
     </g>
     <g id="text_11">
      <!-- 0.0846 -->
      <g transform="translate(15.609375 202.039249)scale(0.1 -0.1)">
       <use xlink:href="#DejaVuSans-48"/>
       <use x="63.623047" xlink:href="#DejaVuSans-46"/>
       <use x="95.410156" xlink:href="#DejaVuSans-48"/>
       <use x="159.033203" xlink:href="#DejaVuSans-56"/>
       <use x="222.65625" xlink:href="#DejaVuSans-52"/>
       <use x="286.279297" xlink:href="#DejaVuSans-54"/>
      </g>
     </g>
    </g>
    <g id="ytick_5">
     <g id="line2d_11">
      <g>
       <use style="stroke:#000000;stroke-width:0.8;" x="57.6" xlink:href="#m61e3850a9c" y="167.274271"/>
      </g>
     </g>
     <g id="text_12">
      <!-- 0.0848 -->
      <g transform="translate(15.609375 171.073489)scale(0.1 -0.1)">
       <use xlink:href="#DejaVuSans-48"/>
       <use x="63.623047" xlink:href="#DejaVuSans-46"/>
       <use x="95.410156" xlink:href="#DejaVuSans-48"/>
       <use x="159.033203" xlink:href="#DejaVuSans-56"/>
       <use x="222.65625" xlink:href="#DejaVuSans-52"/>
       <use x="286.279297" xlink:href="#DejaVuSans-56"/>
      </g>
     </g>
    </g>
    <g id="ytick_6">
     <g id="line2d_12">
      <g>
       <use style="stroke:#000000;stroke-width:0.8;" x="57.6" xlink:href="#m61e3850a9c" y="136.308511"/>
      </g>
     </g>
     <g id="text_13">
      <!-- 0.0850 -->
      <defs>
       <path d="M 10.796875 72.90625 
L 49.515625 72.90625 
L 49.515625 64.59375 
L 19.828125 64.59375 
L 19.828125 46.734375 
Q 21.96875 47.46875 24.109375 47.828125 
Q 26.265625 48.1875 28.421875 48.1875 
Q 40.625 48.1875 47.75 41.5 
Q 54.890625 34.8125 54.890625 23.390625 
Q 54.890625 11.625 47.5625 5.09375 
Q 40.234375 -1.421875 26.90625 -1.421875 
Q 22.3125 -1.421875 17.546875 -0.640625 
Q 12.796875 0.140625 7.71875 1.703125 
L 7.71875 11.625 
Q 12.109375 9.234375 16.796875 8.0625 
Q 21.484375 6.890625 26.703125 6.890625 
Q 35.15625 6.890625 40.078125 11.328125 
Q 45.015625 15.765625 45.015625 23.390625 
Q 45.015625 31 40.078125 35.4375 
Q 35.15625 39.890625 26.703125 39.890625 
Q 22.75 39.890625 18.8125 39.015625 
Q 14.890625 38.140625 10.796875 36.28125 
z
" id="DejaVuSans-53"/>
      </defs>
      <g transform="translate(15.609375 140.107729)scale(0.1 -0.1)">
       <use xlink:href="#DejaVuSans-48"/>
       <use x="63.623047" xlink:href="#DejaVuSans-46"/>
       <use x="95.410156" xlink:href="#DejaVuSans-48"/>
       <use x="159.033203" xlink:href="#DejaVuSans-56"/>
       <use x="222.65625" xlink:href="#DejaVuSans-53"/>
       <use x="286.279297" xlink:href="#DejaVuSans-48"/>
      </g>
     </g>
    </g>
    <g id="ytick_7">
     <g id="line2d_13">
      <g>
       <use style="stroke:#000000;stroke-width:0.8;" x="57.6" xlink:href="#m61e3850a9c" y="105.342751"/>
      </g>
     </g>
     <g id="text_14">
      <!-- 0.0852 -->
      <g transform="translate(15.609375 109.141969)scale(0.1 -0.1)">
       <use xlink:href="#DejaVuSans-48"/>
       <use x="63.623047" xlink:href="#DejaVuSans-46"/>
       <use x="95.410156" xlink:href="#DejaVuSans-48"/>
       <use x="159.033203" xlink:href="#DejaVuSans-56"/>
       <use x="222.65625" xlink:href="#DejaVuSans-53"/>
       <use x="286.279297" xlink:href="#DejaVuSans-50"/>
      </g>
     </g>
    </g>
    <g id="ytick_8">
     <g id="line2d_14">
      <g>
       <use style="stroke:#000000;stroke-width:0.8;" x="57.6" xlink:href="#m61e3850a9c" y="74.376991"/>
      </g>
     </g>
     <g id="text_15">
      <!-- 0.0854 -->
      <g transform="translate(15.609375 78.176209)scale(0.1 -0.1)">
       <use xlink:href="#DejaVuSans-48"/>
       <use x="63.623047" xlink:href="#DejaVuSans-46"/>
       <use x="95.410156" xlink:href="#DejaVuSans-48"/>
       <use x="159.033203" xlink:href="#DejaVuSans-56"/>
       <use x="222.65625" xlink:href="#DejaVuSans-53"/>
       <use x="286.279297" xlink:href="#DejaVuSans-52"/>
      </g>
     </g>
    </g>
    <g id="ytick_9">
     <g id="line2d_15">
      <g>
       <use style="stroke:#000000;stroke-width:0.8;" x="57.6" xlink:href="#m61e3850a9c" y="43.411231"/>
      </g>
     </g>
     <g id="text_16">
      <!-- 0.0856 -->
      <g transform="translate(15.609375 47.210449)scale(0.1 -0.1)">
       <use xlink:href="#DejaVuSans-48"/>
       <use x="63.623047" xlink:href="#DejaVuSans-46"/>
       <use x="95.410156" xlink:href="#DejaVuSans-48"/>
       <use x="159.033203" xlink:href="#DejaVuSans-56"/>
       <use x="222.65625" xlink:href="#DejaVuSans-53"/>
       <use x="286.279297" xlink:href="#DejaVuSans-54"/>
      </g>
     </g>
    </g>
    <g id="text_17">
     <!-- voltage (VOLT) -->
     <defs>
      <path d="M 2.984375 54.6875 
L 12.5 54.6875 
L 29.59375 8.796875 
L 46.6875 54.6875 
L 56.203125 54.6875 
L 35.6875 0 
L 23.484375 0 
z
" id="DejaVuSans-118"/>
      <path d="M 30.609375 48.390625 
Q 23.390625 48.390625 19.1875 42.75 
Q 14.984375 37.109375 14.984375 27.296875 
Q 14.984375 17.484375 19.15625 11.84375 
Q 23.34375 6.203125 30.609375 6.203125 
Q 37.796875 6.203125 41.984375 11.859375 
Q 46.1875 17.53125 46.1875 27.296875 
Q 46.1875 37.015625 41.984375 42.703125 
Q 37.796875 48.390625 30.609375 48.390625 
z
M 30.609375 56 
Q 42.328125 56 49.015625 48.375 
Q 55.71875 40.765625 55.71875 27.296875 
Q 55.71875 13.875 49.015625 6.21875 
Q 42.328125 -1.421875 30.609375 -1.421875 
Q 18.84375 -1.421875 12.171875 6.21875 
Q 5.515625 13.875 5.515625 27.296875 
Q 5.515625 40.765625 12.171875 48.375 
Q 18.84375 56 30.609375 56 
z
" id="DejaVuSans-111"/>
      <path d="M 9.421875 75.984375 
L 18.40625 75.984375 
L 18.40625 0 
L 9.421875 0 
z
" id="DejaVuSans-108"/>
      <path d="M 34.28125 27.484375 
Q 23.390625 27.484375 19.1875 25 
Q 14.984375 22.515625 14.984375 16.5 
Q 14.984375 11.71875 18.140625 8.90625 
Q 21.296875 6.109375 26.703125 6.109375 
Q 34.1875 6.109375 38.703125 11.40625 
Q 43.21875 16.703125 43.21875 25.484375 
L 43.21875 27.484375 
z
M 52.203125 31.203125 
L 52.203125 0 
L 43.21875 0 
L 43.21875 8.296875 
Q 40.140625 3.328125 35.546875 0.953125 
Q 30.953125 -1.421875 24.3125 -1.421875 
Q 15.921875 -1.421875 10.953125 3.296875 
Q 6 8.015625 6 15.921875 
Q 6 25.140625 12.171875 29.828125 
Q 18.359375 34.515625 30.609375 34.515625 
L 43.21875 34.515625 
L 43.21875 35.40625 
Q 43.21875 41.609375 39.140625 45 
Q 35.0625 48.390625 27.6875 48.390625 
Q 23 48.390625 18.546875 47.265625 
Q 14.109375 46.140625 10.015625 43.890625 
L 10.015625 52.203125 
Q 14.9375 54.109375 19.578125 55.046875 
Q 24.21875 56 28.609375 56 
Q 40.484375 56 46.34375 49.84375 
Q 52.203125 43.703125 52.203125 31.203125 
z
" id="DejaVuSans-97"/>
      <path d="M 45.40625 27.984375 
Q 45.40625 37.75 41.375 43.109375 
Q 37.359375 48.484375 30.078125 48.484375 
Q 22.859375 48.484375 18.828125 43.109375 
Q 14.796875 37.75 14.796875 27.984375 
Q 14.796875 18.265625 18.828125 12.890625 
Q 22.859375 7.515625 30.078125 7.515625 
Q 37.359375 7.515625 41.375 12.890625 
Q 45.40625 18.265625 45.40625 27.984375 
z
M 54.390625 6.78125 
Q 54.390625 -7.171875 48.1875 -13.984375 
Q 42 -20.796875 29.203125 -20.796875 
Q 24.46875 -20.796875 20.265625 -20.09375 
Q 16.0625 -19.390625 12.109375 -17.921875 
L 12.109375 -9.1875 
Q 16.0625 -11.328125 19.921875 -12.34375 
Q 23.78125 -13.375 27.78125 -13.375 
Q 36.625 -13.375 41.015625 -8.765625 
Q 45.40625 -4.15625 45.40625 5.171875 
L 45.40625 9.625 
Q 42.625 4.78125 38.28125 2.390625 
Q 33.9375 0 27.875 0 
Q 17.828125 0 11.671875 7.65625 
Q 5.515625 15.328125 5.515625 27.984375 
Q 5.515625 40.671875 11.671875 48.328125 
Q 17.828125 56 27.875 56 
Q 33.9375 56 38.28125 53.609375 
Q 42.625 51.21875 45.40625 46.390625 
L 45.40625 54.6875 
L 54.390625 54.6875 
z
" id="DejaVuSans-103"/>
      <path id="DejaVuSans-32"/>
      <path d="M 28.609375 0 
L 0.78125 72.90625 
L 11.078125 72.90625 
L 34.1875 11.53125 
L 57.328125 72.90625 
L 67.578125 72.90625 
L 39.796875 0 
z
" id="DejaVuSans-86"/>
      <path d="M 39.40625 66.21875 
Q 28.65625 66.21875 22.328125 58.203125 
Q 16.015625 50.203125 16.015625 36.375 
Q 16.015625 22.609375 22.328125 14.59375 
Q 28.65625 6.59375 39.40625 6.59375 
Q 50.140625 6.59375 56.421875 14.59375 
Q 62.703125 22.609375 62.703125 36.375 
Q 62.703125 50.203125 56.421875 58.203125 
Q 50.140625 66.21875 39.40625 66.21875 
z
M 39.40625 74.21875 
Q 54.734375 74.21875 63.90625 63.9375 
Q 73.09375 53.65625 73.09375 36.375 
Q 73.09375 19.140625 63.90625 8.859375 
Q 54.734375 -1.421875 39.40625 -1.421875 
Q 24.03125 -1.421875 14.8125 8.828125 
Q 5.609375 19.09375 5.609375 36.375 
Q 5.609375 53.65625 14.8125 63.9375 
Q 24.03125 74.21875 39.40625 74.21875 
z
" id="DejaVuSans-79"/>
      <path d="M 9.8125 72.90625 
L 19.671875 72.90625 
L 19.671875 8.296875 
L 55.171875 8.296875 
L 55.171875 0 
L 9.8125 0 
z
" id="DejaVuSans-76"/>
      <path d="M -0.296875 72.90625 
L 61.375 72.90625 
L 61.375 64.59375 
L 35.5 64.59375 
L 35.5 0 
L 25.59375 0 
L 25.59375 64.59375 
L -0.296875 64.59375 
z
" id="DejaVuSans-84"/>
     </defs>
     <g transform="translate(9.529687 211.886594)rotate(-90)scale(0.1 -0.1)">
      <use xlink:href="#DejaVuSans-118"/>
      <use x="59.179688" xlink:href="#DejaVuSans-111"/>
      <use x="120.361328" xlink:href="#DejaVuSans-108"/>
      <use x="148.144531" xlink:href="#DejaVuSans-116"/>
      <use x="187.353516" xlink:href="#DejaVuSans-97"/>
      <use x="248.632812" xlink:href="#DejaVuSans-103"/>
      <use x="312.109375" xlink:href="#DejaVuSans-101"/>
      <use x="373.632812" xlink:href="#DejaVuSans-32"/>
      <use x="405.419922" xlink:href="#DejaVuSans-40"/>
      <use x="444.433594" xlink:href="#DejaVuSans-86"/>
      <use x="512.826172" xlink:href="#DejaVuSans-79"/>
      <use x="591.537109" xlink:href="#DejaVuSans-76"/>
      <use x="647.046875" xlink:href="#DejaVuSans-84"/>
      <use x="708.130859" xlink:href="#DejaVuSans-41"/>
     </g>
    </g>
   </g>
   <g id="line2d_16">
    <path clip-path="url(#pfbd686bd8f)" d="M 73.832727 295.488 
L 73.995298 295.488 
L 74.320441 114.059612 
L 74.645583 235.011871 
L 74.970725 114.059612 
L 75.295867 235.011871 
L 75.62101 114.059612 
L 75.946152 204.773806 
L 76.108723 114.059612 
L 76.271294 174.535741 
L 76.433865 295.488 
L 76.596436 265.249935 
L 76.921579 144.297677 
L 77.246721 265.249935 
L 77.409292 204.773806 
L 77.571863 204.773806 
L 77.734434 295.488 
L 77.897006 295.488 
L 78.222148 144.297677 
L 78.54729 235.011871 
L 78.872432 174.535741 
L 79.197575 265.249935 
L 79.522717 114.059612 
L 79.847859 235.011871 
L 80.173001 144.297677 
L 80.335572 204.773806 
L 80.660715 53.568 
L 80.823286 114.059612 
L 80.985857 235.011871 
L 81.148428 204.773806 
L 81.310999 53.568 
L 81.47357 53.568 
L 81.636141 235.011871 
L 81.798713 265.249935 
L 81.961284 174.535741 
L 82.123855 174.535741 
L 82.286426 295.488 
L 82.448997 295.488 
L 82.774139 174.535741 
L 83.099282 265.249935 
L 83.424424 174.535741 
L 83.749566 265.249935 
L 84.074708 174.535741 
L 84.399851 265.249935 
L 84.724993 144.297677 
L 85.050135 265.249935 
L 85.212706 204.773806 
L 85.375277 204.773806 
L 85.537849 295.488 
L 85.70042 265.249935 
L 85.862991 174.535741 
L 86.025562 174.535741 
L 86.188133 295.488 
L 86.350704 265.249935 
L 86.513275 174.535741 
L 86.675846 174.535741 
L 86.838418 295.488 
L 87.000989 295.488 
L 87.326131 174.535741 
L 87.651273 265.249935 
L 87.813844 204.773806 
L 87.976416 204.773806 
L 88.138987 295.488 
L 88.301558 295.488 
L 88.6267 174.535741 
L 88.789271 235.011871 
L 88.951842 235.011871 
L 89.114413 174.535741 
L 89.276985 174.535741 
L 89.439556 295.488 
L 89.602127 295.488 
L 89.764698 204.773806 
L 89.927269 204.773806 
L 90.08984 295.488 
L 90.252411 295.488 
L 90.414982 174.535741 
L 90.577554 144.297677 
L 90.740125 174.535741 
L 90.902696 174.535741 
L 91.227838 53.568 
L 91.55298 295.488 
L 91.715552 174.535741 
L 91.878123 144.297677 
L 92.040694 265.249935 
L 92.203265 235.011871 
L 92.528407 144.297677 
L 92.853549 265.249935 
L 93.178692 174.535741 
L 93.503834 265.249935 
L 93.828976 114.059612 
L 94.154118 295.488 
L 94.479261 174.535741 
L 94.641832 235.011871 
L 94.804403 204.773806 
L 94.966974 53.568 
L 95.129545 114.059612 
L 95.292116 265.249935 
L 95.454687 295.488 
L 95.77983 83.806065 
L 96.104972 235.011871 
L 96.430114 144.297677 
L 96.592685 235.011871 
L 96.755257 235.011871 
L 96.917828 144.297677 
L 97.080399 144.297677 
L 97.24297 265.249935 
L 97.405541 295.488 
L 97.568112 204.773806 
L 97.730683 204.773806 
L 97.893254 295.488 
L 98.055826 295.488 
L 98.380968 174.535741 
L 98.70611 265.249935 
L 98.868681 204.773806 
L 99.031252 204.773806 
L 99.193823 265.249935 
L 99.681537 174.535741 
L 100.006679 265.249935 
L 100.16925 204.773806 
L 100.331821 204.773806 
L 100.494392 265.249935 
L 100.656964 235.011871 
L 100.819535 144.297677 
L 100.982106 144.297677 
L 101.144677 235.011871 
L 101.307248 235.011871 
L 101.469819 174.535741 
L 101.63239 174.535741 
L 101.794962 235.011871 
L 101.957533 204.773806 
L 102.120104 114.059612 
L 102.282675 144.297677 
L 102.445246 235.011871 
L 102.607817 204.773806 
L 102.770388 114.059612 
L 102.932959 114.059612 
L 103.258102 295.488 
L 103.420673 174.535741 
L 103.583244 144.297677 
L 103.745815 235.011871 
L 103.908386 235.011871 
L 104.233528 144.297677 
L 104.558671 265.249935 
L 104.883813 174.535741 
L 105.046384 235.011871 
L 105.208955 235.011871 
L 105.371526 174.535741 
L 105.534098 174.535741 
L 105.696669 295.488 
L 105.85924 235.011871 
L 106.021811 114.059612 
L 106.184382 83.806065 
L 106.509524 235.011871 
L 106.672095 204.773806 
L 106.834667 144.297677 
L 107.159809 204.773806 
L 107.484951 144.297677 
L 107.810093 265.249935 
L 107.972664 204.773806 
L 108.135236 204.773806 
L 108.297807 265.249935 
L 108.460378 235.011871 
L 108.622949 144.297677 
L 108.78552 144.297677 
L 109.110662 265.249935 
L 109.435805 144.297677 
L 109.760947 265.249935 
L 109.923518 204.773806 
L 110.086089 204.773806 
L 110.24866 295.488 
L 110.411231 295.488 
L 110.573803 174.535741 
L 110.736374 144.297677 
L 110.898945 204.773806 
L 111.061516 204.773806 
L 111.224087 174.535741 
L 111.386658 204.773806 
L 111.549229 295.488 
L 111.7118 265.249935 
L 112.036943 144.297677 
L 112.199514 204.773806 
L 112.362085 204.773806 
L 112.524656 174.535741 
L 112.687227 174.535741 
L 112.849798 235.011871 
L 113.012369 204.773806 
L 113.174941 144.297677 
L 113.337512 144.297677 
L 113.662654 265.249935 
L 113.987796 114.059612 
L 114.150367 235.011871 
L 114.312938 265.249935 
L 114.638081 144.297677 
L 114.963223 204.773806 
L 115.125794 174.535741 
L 115.288365 204.773806 
L 115.450936 295.488 
L 115.613508 265.249935 
L 115.776079 174.535741 
L 115.93865 174.535741 
L 116.101221 235.011871 
L 116.426363 174.535741 
L 116.588934 174.535741 
L 116.914077 265.249935 
L 117.239219 174.535741 
L 117.40179 235.011871 
L 117.564361 204.773806 
L 117.726932 114.059612 
L 117.889503 174.535741 
L 118.052074 295.488 
L 118.214646 295.488 
L 118.377217 204.773806 
L 118.539788 204.773806 
L 118.702359 295.488 
L 118.86493 265.249935 
L 119.027501 174.535741 
L 119.190072 174.535741 
L 119.515215 265.249935 
L 119.677786 204.773806 
L 119.840357 204.773806 
L 120.002928 295.488 
L 120.165499 265.249935 
L 120.490641 83.806065 
L 120.815784 235.011871 
L 120.978355 204.773806 
L 121.140926 204.773806 
L 121.303497 295.488 
L 121.466068 265.249935 
L 121.79121 144.297677 
L 121.953782 235.011871 
L 122.116353 235.011871 
L 122.278924 144.297677 
L 122.441495 144.297677 
L 122.604066 265.249935 
L 122.766637 265.249935 
L 122.929208 174.535741 
L 123.091779 174.535741 
L 123.254351 295.488 
L 123.416922 295.488 
L 123.742064 114.059612 
L 124.067206 235.011871 
L 124.229777 204.773806 
L 124.392349 204.773806 
L 124.55492 295.488 
L 124.717491 265.249935 
L 124.880062 174.535741 
L 125.042633 174.535741 
L 125.205204 295.488 
L 125.367775 295.488 
L 125.530346 174.535741 
L 125.692918 144.297677 
L 125.855489 265.249935 
L 126.01806 295.488 
L 126.180631 174.535741 
L 126.343202 144.297677 
L 126.505773 235.011871 
L 126.668344 235.011871 
L 126.830915 204.773806 
L 126.993487 204.773806 
L 127.156058 295.488 
L 127.318629 295.488 
L 127.643771 174.535741 
L 127.968913 265.249935 
L 128.294056 114.059612 
L 128.619198 235.011871 
L 128.781769 204.773806 
L 128.94434 144.297677 
L 129.269482 235.011871 
L 129.594625 174.535741 
L 129.757196 204.773806 
L 130.082338 144.297677 
L 130.244909 174.535741 
L 130.40748 235.011871 
L 130.570051 235.011871 
L 130.895194 114.059612 
L 131.220336 235.011871 
L 131.382907 174.535741 
L 131.545478 174.535741 
L 131.708049 235.011871 
L 132.033192 83.806065 
L 132.195763 114.059612 
L 132.358334 265.249935 
L 132.520905 295.488 
L 132.683476 204.773806 
L 132.846047 204.773806 
L 133.008618 295.488 
L 133.17119 295.488 
L 133.333761 174.535741 
L 133.496332 144.297677 
L 133.658903 265.249935 
L 133.821474 295.488 
L 134.146616 174.535741 
L 134.309187 235.011871 
L 134.471759 235.011871 
L 134.63433 174.535741 
L 134.796901 174.535741 
L 135.122043 265.249935 
L 135.447185 144.297677 
L 135.772328 235.011871 
L 136.09747 144.297677 
L 136.422612 235.011871 
L 136.747754 174.535741 
L 136.910325 235.011871 
L 137.072897 235.011871 
L 137.235468 174.535741 
L 137.398039 174.535741 
L 137.56061 265.249935 
L 137.885752 144.297677 
L 138.048323 174.535741 
L 138.373466 265.249935 
L 138.536037 204.773806 
L 138.698608 204.773806 
L 138.861179 295.488 
L 139.02375 295.488 
L 139.348892 174.535741 
L 139.674035 265.249935 
L 139.999177 174.535741 
L 140.324319 265.249935 
L 140.48689 204.773806 
L 140.649461 204.773806 
L 140.812033 295.488 
L 140.974604 265.249935 
L 141.137175 174.535741 
L 141.299746 174.535741 
L 141.462317 295.488 
L 141.624888 265.249935 
L 141.950031 144.297677 
L 142.275173 265.249935 
L 142.437744 204.773806 
L 142.600315 204.773806 
L 142.762886 295.488 
L 142.925457 235.011871 
L 143.088028 114.059612 
L 143.2506 144.297677 
L 143.413171 235.011871 
L 143.575742 204.773806 
L 143.738313 144.297677 
L 143.900884 174.535741 
L 144.226026 265.249935 
L 144.551169 174.535741 
L 144.71374 235.011871 
L 144.876311 204.773806 
L 145.201453 83.806065 
L 145.526595 235.011871 
L 145.851738 114.059612 
L 146.014309 235.011871 
L 146.17688 235.011871 
L 146.339451 174.535741 
L 146.502022 204.773806 
L 146.664593 265.249935 
L 146.827164 235.011871 
L 146.989736 144.297677 
L 147.152307 144.297677 
L 147.314878 265.249935 
L 147.477449 295.488 
L 147.64002 174.535741 
L 147.802591 144.297677 
L 147.965162 265.249935 
L 148.127733 295.488 
L 148.290305 204.773806 
L 148.452876 204.773806 
L 148.615447 295.488 
L 148.778018 295.488 
L 148.940589 174.535741 
L 149.10316 144.297677 
L 149.265731 265.249935 
L 149.428302 295.488 
L 149.590874 204.773806 
L 149.753445 204.773806 
L 149.916016 295.488 
L 150.078587 295.488 
L 150.403729 174.535741 
L 150.5663 204.773806 
L 150.728871 204.773806 
L 150.891443 114.059612 
L 151.054014 144.297677 
L 151.379156 265.249935 
L 151.541727 204.773806 
L 151.704298 204.773806 
L 151.866869 265.249935 
L 152.029441 235.011871 
L 152.192012 144.297677 
L 152.354583 174.535741 
L 152.517154 295.488 
L 152.679725 295.488 
L 152.842296 204.773806 
L 153.004867 204.773806 
L 153.167438 295.488 
L 153.33001 265.249935 
L 153.492581 174.535741 
L 153.655152 174.535741 
L 153.817723 265.249935 
L 153.980294 235.011871 
L 154.305436 144.297677 
L 154.630579 265.249935 
L 154.955721 174.535741 
L 155.280863 265.249935 
L 155.443434 204.773806 
L 155.606005 204.773806 
L 155.768577 295.488 
L 155.931148 295.488 
L 156.093719 204.773806 
L 156.25629 204.773806 
L 156.418861 295.488 
L 156.581432 265.249935 
L 156.744003 144.297677 
L 156.906574 144.297677 
L 157.069146 265.249935 
L 157.231717 295.488 
L 157.556859 174.535741 
L 157.882001 265.249935 
L 158.207143 144.297677 
L 158.369715 265.249935 
L 158.532286 295.488 
L 158.694857 204.773806 
L 158.857428 204.773806 
L 159.019999 295.488 
L 159.18257 265.249935 
L 159.345141 144.297677 
L 159.507712 114.059612 
L 159.670284 235.011871 
L 159.832855 265.249935 
L 159.995426 204.773806 
L 160.157997 204.773806 
L 160.320568 265.249935 
L 160.483139 235.011871 
L 160.64571 144.297677 
L 160.808282 144.297677 
L 160.970853 235.011871 
L 161.133424 235.011871 
L 161.295995 144.297677 
L 161.458566 144.297677 
L 161.621137 235.011871 
L 161.783708 204.773806 
L 161.946279 144.297677 
L 162.108851 174.535741 
L 162.433993 265.249935 
L 162.596564 204.773806 
L 162.759135 204.773806 
L 162.921706 295.488 
L 163.084277 295.488 
L 163.246848 204.773806 
L 163.40942 204.773806 
L 163.571991 295.488 
L 163.734562 295.488 
L 163.897133 204.773806 
L 164.059704 204.773806 
L 164.222275 295.488 
L 164.384846 295.488 
L 164.547417 204.773806 
L 164.709989 204.773806 
L 164.87256 265.249935 
L 165.035131 235.011871 
L 165.197702 144.297677 
L 165.360273 144.297677 
L 165.522844 235.011871 
L 165.685415 204.773806 
L 165.847987 144.297677 
L 166.010558 174.535741 
L 166.3357 265.249935 
L 166.660842 144.297677 
L 166.823413 265.249935 
L 166.985984 295.488 
L 167.311127 144.297677 
L 167.636269 235.011871 
L 167.961411 144.297677 
L 168.286553 265.249935 
L 168.611696 174.535741 
L 168.936838 265.249935 
L 169.099409 204.773806 
L 169.26198 204.773806 
L 169.424551 295.488 
L 169.587123 295.488 
L 169.749694 174.535741 
L 169.912265 144.297677 
L 170.237407 265.249935 
L 170.399978 204.773806 
L 170.562549 204.773806 
L 170.72512 295.488 
L 170.887692 295.488 
L 171.050263 174.535741 
L 171.212834 144.297677 
L 171.375405 265.249935 
L 171.537976 235.011871 
L 171.700547 114.059612 
L 171.863118 114.059612 
L 172.025689 235.011871 
L 172.188261 265.249935 
L 172.513403 174.535741 
L 172.838545 265.249935 
L 173.001116 204.773806 
L 173.163687 204.773806 
L 173.326258 295.488 
L 173.48883 295.488 
L 173.813972 174.535741 
L 174.139114 265.249935 
L 174.464256 144.297677 
L 174.626828 265.249935 
L 174.789399 265.249935 
L 174.95197 174.535741 
L 175.114541 174.535741 
L 175.277112 295.488 
L 175.439683 295.488 
L 175.602254 174.535741 
L 175.764825 144.297677 
L 175.927397 265.249935 
L 176.089968 295.488 
L 176.41511 174.535741 
L 176.577681 235.011871 
L 176.740252 235.011871 
L 176.902823 114.059612 
L 177.065394 144.297677 
L 177.227966 295.488 
L 177.390537 295.488 
L 177.553108 204.773806 
L 177.715679 204.773806 
L 177.87825 295.488 
L 178.040821 295.488 
L 178.203392 204.773806 
L 178.365963 204.773806 
L 178.528535 295.488 
L 178.691106 295.488 
L 178.853677 174.535741 
L 179.016248 144.297677 
L 179.34139 265.249935 
L 179.503961 204.773806 
L 179.666533 204.773806 
L 179.829104 295.488 
L 179.991675 295.488 
L 180.154246 174.535741 
L 180.316817 144.297677 
L 180.479388 235.011871 
L 180.641959 204.773806 
L 180.80453 114.059612 
L 180.967102 144.297677 
L 181.292244 265.249935 
L 181.454815 204.773806 
L 181.617386 204.773806 
L 181.779957 295.488 
L 181.942528 295.488 
L 182.105099 174.535741 
L 182.267671 144.297677 
L 182.592813 265.249935 
L 182.755384 204.773806 
L 182.917955 204.773806 
L 183.080526 295.488 
L 183.243097 295.488 
L 183.56824 144.297677 
L 183.730811 174.535741 
L 183.893382 235.011871 
L 184.218524 174.535741 
L 184.543666 265.249935 
L 184.868809 174.535741 
L 185.03138 204.773806 
L 185.193951 204.773806 
L 185.356522 144.297677 
L 185.519093 174.535741 
L 185.681664 295.488 
L 185.844235 265.249935 
L 186.006807 174.535741 
L 186.169378 174.535741 
L 186.331949 295.488 
L 186.49452 295.488 
L 186.819662 174.535741 
L 186.982233 235.011871 
L 187.144804 204.773806 
L 187.307376 114.059612 
L 187.469947 174.535741 
L 187.632518 295.488 
L 187.795089 265.249935 
L 187.95766 174.535741 
L 188.120231 174.535741 
L 188.282802 265.249935 
L 188.607945 144.297677 
L 188.770516 144.297677 
L 188.933087 204.773806 
L 189.095658 204.773806 
L 189.258229 174.535741 
L 189.4208 204.773806 
L 189.583371 295.488 
L 189.745943 295.488 
L 189.908514 174.535741 
L 190.071085 144.297677 
L 190.233656 265.249935 
L 190.396227 295.488 
L 190.721369 174.535741 
L 191.046512 235.011871 
L 191.371654 144.297677 
L 191.696796 265.249935 
L 192.021938 144.297677 
L 192.184509 204.773806 
L 192.347081 204.773806 
L 192.509652 144.297677 
L 192.672223 144.297677 
L 192.997365 265.249935 
L 193.322507 174.535741 
L 193.485079 235.011871 
L 193.64765 235.011871 
L 193.810221 174.535741 
L 193.972792 204.773806 
L 194.135363 295.488 
L 194.297934 265.249935 
L 194.460505 174.535741 
L 194.623076 174.535741 
L 194.785648 295.488 
L 194.948219 265.249935 
L 195.11079 144.297677 
L 195.273361 144.297677 
L 195.435932 265.249935 
L 195.598503 265.249935 
L 195.761074 174.535741 
L 195.923645 174.535741 
L 196.086217 265.249935 
L 196.248788 204.773806 
L 196.411359 83.806065 
L 196.57393 114.059612 
L 196.899072 295.488 
L 197.224215 144.297677 
L 197.549357 235.011871 
L 197.711928 174.535741 
L 197.874499 174.535741 
L 198.03707 265.249935 
L 198.362212 144.297677 
L 198.524784 174.535741 
L 198.687355 295.488 
L 198.849926 295.488 
L 199.175068 174.535741 
L 199.337639 235.011871 
L 199.662781 174.535741 
L 199.825353 174.535741 
L 200.150495 265.249935 
L 200.313066 204.773806 
L 200.475637 204.773806 
L 200.638208 295.488 
L 200.800779 295.488 
L 200.96335 174.535741 
L 201.125922 144.297677 
L 201.288493 265.249935 
L 201.451064 295.488 
L 201.776206 174.535741 
L 201.938777 235.011871 
L 202.101348 235.011871 
L 202.26392 174.535741 
L 202.426491 174.535741 
L 202.589062 265.249935 
L 202.751633 235.011871 
L 202.914204 174.535741 
L 203.076775 174.535741 
L 203.401917 265.249935 
L 203.72706 114.059612 
L 203.889631 235.011871 
L 204.052202 204.773806 
L 204.214773 144.297677 
L 204.377344 144.297677 
L 204.539915 235.011871 
L 204.702486 235.011871 
L 205.027629 53.568 
L 205.352771 265.249935 
L 205.515342 204.773806 
L 205.677913 204.773806 
L 205.840484 295.488 
L 206.003055 265.249935 
L 206.328198 144.297677 
L 206.65334 265.249935 
L 206.815911 204.773806 
L 206.978482 204.773806 
L 207.141053 295.488 
L 207.303625 265.249935 
L 207.628767 144.297677 
L 207.953909 265.249935 
L 208.279051 174.535741 
L 208.441622 235.011871 
L 208.604194 235.011871 
L 208.766765 174.535741 
L 208.929336 174.535741 
L 209.091907 295.488 
L 209.254478 295.488 
L 209.57962 144.297677 
L 209.742191 204.773806 
L 209.904763 204.773806 
L 210.067334 114.059612 
L 210.229905 174.535741 
L 210.392476 295.488 
L 210.555047 295.488 
L 210.717618 204.773806 
L 210.880189 204.773806 
L 211.042761 295.488 
L 211.205332 295.488 
L 211.530474 144.297677 
L 211.855616 235.011871 
L 212.018187 204.773806 
L 212.180758 204.773806 
L 212.34333 295.488 
L 212.505901 265.249935 
L 212.668472 174.535741 
L 212.831043 174.535741 
L 212.993614 295.488 
L 213.156185 295.488 
L 213.318756 174.535741 
L 213.481327 144.297677 
L 213.643899 265.249935 
L 213.80647 295.488 
L 213.969041 174.535741 
L 214.131612 144.297677 
L 214.294183 235.011871 
L 214.456754 235.011871 
L 214.781896 144.297677 
L 215.107039 265.249935 
L 215.26961 204.773806 
L 215.432181 204.773806 
L 215.594752 295.488 
L 215.757323 235.011871 
L 215.919894 114.059612 
L 216.082466 114.059612 
L 216.245037 265.249935 
L 216.407608 295.488 
L 216.73275 144.297677 
L 217.057892 235.011871 
L 217.220463 204.773806 
L 217.383035 204.773806 
L 217.545606 295.488 
L 217.708177 295.488 
L 218.033319 174.535741 
L 218.19589 235.011871 
L 218.358461 235.011871 
L 218.521032 174.535741 
L 218.683604 174.535741 
L 219.008746 265.249935 
L 219.171317 204.773806 
L 219.333888 204.773806 
L 219.496459 295.488 
L 219.65903 235.011871 
L 219.821601 114.059612 
L 219.984173 174.535741 
L 220.146744 295.488 
L 220.309315 295.488 
L 220.634457 174.535741 
L 220.797028 204.773806 
L 220.959599 204.773806 
L 221.122171 174.535741 
L 221.284742 174.535741 
L 221.447313 235.011871 
L 221.772455 114.059612 
L 221.935026 144.297677 
L 222.097597 295.488 
L 222.260168 295.488 
L 222.42274 204.773806 
L 222.585311 204.773806 
L 222.747882 295.488 
L 222.910453 265.249935 
L 223.235595 144.297677 
L 223.398166 235.011871 
L 223.560737 235.011871 
L 223.88588 144.297677 
L 224.211022 204.773806 
L 224.373593 174.535741 
L 224.536164 204.773806 
L 224.698735 295.488 
L 224.861307 265.249935 
L 225.186449 144.297677 
L 225.511591 265.249935 
L 225.836733 144.297677 
L 225.999304 235.011871 
L 226.161876 204.773806 
L 226.324447 114.059612 
L 226.487018 174.535741 
L 226.649589 295.488 
L 226.81216 265.249935 
L 227.137302 144.297677 
L 227.462445 265.249935 
L 227.787587 144.297677 
L 227.950158 265.249935 
L 228.112729 235.011871 
L 228.2753 144.297677 
L 228.437871 144.297677 
L 228.600442 235.011871 
L 228.763014 235.011871 
L 228.925585 144.297677 
L 229.088156 144.297677 
L 229.250727 265.249935 
L 229.413298 265.249935 
L 229.73844 144.297677 
L 229.901012 235.011871 
L 230.063583 235.011871 
L 230.388725 114.059612 
L 230.551296 235.011871 
L 230.713867 265.249935 
L 231.039009 174.535741 
L 231.201581 204.773806 
L 231.364152 204.773806 
L 231.526723 174.535741 
L 231.689294 174.535741 
L 231.851865 295.488 
L 232.014436 265.249935 
L 232.339578 144.297677 
L 232.50215 204.773806 
L 232.664721 204.773806 
L 232.989863 114.059612 
L 233.315005 235.011871 
L 233.640147 144.297677 
L 233.96529 265.249935 
L 234.290432 174.535741 
L 234.453003 235.011871 
L 234.778145 174.535741 
L 234.940717 174.535741 
L 235.103288 235.011871 
L 235.265859 235.011871 
L 235.42843 174.535741 
L 235.591001 174.535741 
L 235.753572 295.488 
L 235.916143 295.488 
L 236.078714 174.535741 
L 236.241286 144.297677 
L 236.403857 265.249935 
L 236.566428 235.011871 
L 236.728999 114.059612 
L 236.89157 174.535741 
L 237.054141 295.488 
L 237.216712 295.488 
L 237.541855 174.535741 
L 237.704426 204.773806 
L 237.866997 204.773806 
L 238.029568 174.535741 
L 238.192139 114.059612 
L 238.517281 235.011871 
L 238.679853 204.773806 
L 238.842424 204.773806 
L 239.004995 295.488 
L 239.167566 265.249935 
L 239.330137 144.297677 
L 239.492708 144.297677 
L 239.655279 265.249935 
L 239.81785 295.488 
L 239.980422 204.773806 
L 240.142993 204.773806 
L 240.305564 295.488 
L 240.468135 235.011871 
L 240.630706 114.059612 
L 240.793277 114.059612 
L 240.955848 265.249935 
L 241.118419 265.249935 
L 241.280991 174.535741 
L 241.443562 174.535741 
L 241.606133 235.011871 
L 241.768704 235.011871 
L 242.093846 114.059612 
L 242.418988 265.249935 
L 242.58156 204.773806 
L 242.744131 204.773806 
L 242.906702 295.488 
L 243.069273 295.488 
L 243.394415 174.535741 
L 243.719558 265.249935 
L 244.0447 144.297677 
L 244.207271 235.011871 
L 244.369842 204.773806 
L 244.532413 144.297677 
L 244.694984 174.535741 
L 244.857555 295.488 
L 245.020127 265.249935 
L 245.182698 174.535741 
L 245.345269 174.535741 
L 245.50784 295.488 
L 245.670411 295.488 
L 245.832982 204.773806 
L 245.995553 204.773806 
L 246.158124 295.488 
L 246.320696 295.488 
L 246.645838 174.535741 
L 246.808409 235.011871 
L 246.97098 235.011871 
L 247.133551 144.297677 
L 247.296122 144.297677 
L 247.458693 265.249935 
L 247.621265 265.249935 
L 247.946407 144.297677 
L 248.271549 265.249935 
L 248.596691 114.059612 
L 248.759263 235.011871 
L 248.921834 235.011871 
L 249.246976 144.297677 
L 249.572118 265.249935 
L 249.89726 144.297677 
L 250.059832 235.011871 
L 250.222403 204.773806 
L 250.384974 114.059612 
L 250.547545 144.297677 
L 250.710116 265.249935 
L 250.872687 295.488 
L 251.197829 114.059612 
L 251.522972 265.249935 
L 251.848114 174.535741 
L 252.173256 265.249935 
L 252.335827 204.773806 
L 252.498399 204.773806 
L 252.66097 265.249935 
L 252.986112 204.773806 
L 253.148683 204.773806 
L 253.311254 295.488 
L 253.473825 295.488 
L 253.636396 174.535741 
L 253.798968 144.297677 
L 254.12411 265.249935 
L 254.286681 204.773806 
L 254.449252 204.773806 
L 254.611823 295.488 
L 254.774394 265.249935 
L 254.936965 174.535741 
L 255.099537 174.535741 
L 255.262108 295.488 
L 255.424679 295.488 
L 255.749821 114.059612 
L 256.074963 295.488 
L 256.400106 174.535741 
L 256.725248 265.249935 
L 256.887819 204.773806 
L 257.05039 204.773806 
L 257.212961 295.488 
L 257.375532 295.488 
L 257.538104 204.773806 
L 257.700675 204.773806 
L 257.863246 265.249935 
L 258.025817 235.011871 
L 258.188388 144.297677 
L 258.350959 174.535741 
L 258.51353 295.488 
L 258.676101 265.249935 
L 258.838673 174.535741 
L 259.001244 174.535741 
L 259.163815 265.249935 
L 259.488957 144.297677 
L 259.651528 174.535741 
L 259.814099 295.488 
L 259.97667 295.488 
L 260.139242 204.773806 
L 260.301813 204.773806 
L 260.464384 295.488 
L 260.626955 265.249935 
L 260.789526 144.297677 
L 260.952097 144.297677 
L 261.114668 265.249935 
L 261.277239 265.249935 
L 261.439811 144.297677 
L 261.602382 144.297677 
L 261.764953 265.249935 
L 261.927524 295.488 
L 262.252666 174.535741 
L 262.577809 265.249935 
L 262.74038 204.773806 
L 262.902951 204.773806 
L 263.065522 295.488 
L 263.228093 265.249935 
L 263.390664 144.297677 
L 263.553235 114.059612 
L 263.878378 265.249935 
L 264.040949 204.773806 
L 264.20352 204.773806 
L 264.366091 295.488 
L 264.528662 265.249935 
L 264.691233 174.535741 
L 264.853804 174.535741 
L 265.016375 265.249935 
L 265.341518 204.773806 
L 265.504089 204.773806 
L 265.66666 295.488 
L 265.829231 295.488 
L 265.991802 174.535741 
L 266.154373 144.297677 
L 266.479516 265.249935 
L 266.804658 114.059612 
L 267.1298 295.488 
L 267.454942 174.535741 
L 267.617514 235.011871 
L 267.780085 235.011871 
L 267.942656 174.535741 
L 268.105227 174.535741 
L 268.267798 204.773806 
L 268.430369 174.535741 
L 268.59294 114.059612 
L 268.755511 114.059612 
L 269.080654 235.011871 
L 269.405796 144.297677 
L 269.568367 265.249935 
L 269.730938 295.488 
L 269.893509 174.535741 
L 270.05608 144.297677 
L 270.218652 265.249935 
L 270.381223 235.011871 
L 270.543794 114.059612 
L 270.706365 174.535741 
L 270.868936 295.488 
L 271.031507 295.488 
L 271.35665 174.535741 
L 271.519221 235.011871 
L 271.681792 235.011871 
L 271.844363 174.535741 
L 272.006934 174.535741 
L 272.169505 265.249935 
L 272.494647 53.568 
L 272.657219 114.059612 
L 272.81979 235.011871 
L 272.982361 235.011871 
L 273.307503 144.297677 
L 273.470074 265.249935 
L 273.632645 295.488 
L 273.795216 204.773806 
L 273.957788 204.773806 
L 274.120359 295.488 
L 274.28293 295.488 
L 274.608072 174.535741 
L 274.933214 265.249935 
L 275.258357 144.297677 
L 275.583499 265.249935 
L 275.74607 204.773806 
L 275.908641 204.773806 
L 276.071212 295.488 
L 276.233783 295.488 
L 276.396355 204.773806 
L 276.558926 204.773806 
L 276.721497 295.488 
L 276.884068 295.488 
L 277.20921 174.535741 
L 277.371781 235.011871 
L 277.534352 235.011871 
L 277.859495 144.297677 
L 278.022066 265.249935 
L 278.184637 265.249935 
L 278.509779 144.297677 
L 278.67235 235.011871 
L 278.834921 235.011871 
L 278.997493 144.297677 
L 279.160064 144.297677 
L 279.322635 235.011871 
L 279.485206 204.773806 
L 279.647777 144.297677 
L 279.810348 144.297677 
L 279.972919 265.249935 
L 280.135491 295.488 
L 280.298062 204.773806 
L 280.460633 204.773806 
L 280.623204 265.249935 
L 280.785775 235.011871 
L 280.948346 174.535741 
L 281.110917 204.773806 
L 281.273488 295.488 
L 281.43606 265.249935 
L 281.598631 144.297677 
L 281.761202 144.297677 
L 281.923773 235.011871 
L 282.086344 235.011871 
L 282.248915 174.535741 
L 282.411486 174.535741 
L 282.574057 235.011871 
L 282.736629 235.011871 
L 282.8992 144.297677 
L 283.061771 144.297677 
L 283.224342 265.249935 
L 283.386913 295.488 
L 283.549484 204.773806 
L 283.712055 204.773806 
L 283.874626 265.249935 
L 284.199769 144.297677 
L 284.36234 174.535741 
L 284.524911 265.249935 
L 284.850053 144.297677 
L 285.012624 174.535741 
L 285.175196 295.488 
L 285.337767 295.488 
L 285.662909 174.535741 
L 285.82548 235.011871 
L 285.988051 235.011871 
L 286.150622 174.535741 
L 286.313193 174.535741 
L 286.475765 295.488 
L 286.638336 295.488 
L 286.963478 174.535741 
L 287.28862 265.249935 
L 287.451191 204.773806 
L 287.613762 204.773806 
L 287.776334 265.249935 
L 288.101476 114.059612 
L 288.264047 144.297677 
L 288.426618 265.249935 
L 288.589189 265.249935 
L 288.75176 174.535741 
L 288.914331 174.535741 
L 289.076903 295.488 
L 289.239474 265.249935 
L 289.564616 114.059612 
L 289.727187 144.297677 
L 289.889758 144.297677 
L 290.052329 83.806065 
L 290.377472 295.488 
L 290.540043 265.249935 
L 290.702614 144.297677 
L 290.865185 114.059612 
L 291.190327 235.011871 
L 291.51547 144.297677 
L 291.840612 235.011871 
L 292.165754 114.059612 
L 292.328325 235.011871 
L 292.490896 235.011871 
L 292.653467 174.535741 
L 292.816039 174.535741 
L 292.97861 235.011871 
L 293.303752 83.806065 
L 293.791465 295.488 
L 293.954037 174.535741 
L 294.116608 144.297677 
L 294.279179 265.249935 
L 294.44175 295.488 
L 294.604321 204.773806 
L 294.766892 204.773806 
L 294.929463 295.488 
L 295.092034 295.488 
L 295.254606 174.535741 
L 295.417177 144.297677 
L 295.579748 265.249935 
L 295.742319 265.249935 
L 295.90489 174.535741 
L 296.067461 174.535741 
L 296.230032 295.488 
L 296.392603 235.011871 
L 296.555175 114.059612 
L 297.042888 204.773806 
L 297.205459 174.535741 
L 297.36803 204.773806 
L 297.530601 295.488 
L 297.693172 265.249935 
L 297.855744 144.297677 
L 298.018315 144.297677 
L 298.180886 265.249935 
L 298.343457 204.773806 
L 298.506028 53.568 
L 298.668599 114.059612 
L 298.83117 265.249935 
L 298.993742 265.249935 
L 299.156313 174.535741 
L 299.318884 174.535741 
L 299.481455 295.488 
L 299.644026 295.488 
L 299.969168 174.535741 
L 300.294311 265.249935 
L 300.456882 114.059612 
L 300.619453 83.806065 
L 300.944595 265.249935 
L 301.269737 144.297677 
L 301.59488 235.011871 
L 301.757451 174.535741 
L 301.920022 174.535741 
L 302.082593 295.488 
L 302.245164 295.488 
L 302.570306 174.535741 
L 302.895449 265.249935 
L 303.220591 144.297677 
L 303.383162 265.249935 
L 303.545733 265.249935 
L 303.708304 174.535741 
L 303.870875 174.535741 
L 304.033447 295.488 
L 304.196018 295.488 
L 304.358589 204.773806 
L 304.52116 204.773806 
L 304.683731 295.488 
L 304.846302 265.249935 
L 305.008873 144.297677 
L 305.171444 114.059612 
L 305.334016 235.011871 
L 305.496587 204.773806 
L 305.659158 114.059612 
L 305.821729 114.059612 
L 305.9843 235.011871 
L 306.146871 204.773806 
L 306.472013 83.806065 
L 306.634585 174.535741 
L 306.797156 144.297677 
L 306.959727 83.806065 
L 307.122298 83.806065 
L 307.44744 235.011871 
L 307.610011 204.773806 
L 307.772583 144.297677 
L 308.097725 235.011871 
L 308.260296 204.773806 
L 308.422867 204.773806 
L 308.585438 295.488 
L 308.748009 235.011871 
L 308.91058 114.059612 
L 309.073152 144.297677 
L 309.398294 265.249935 
L 309.723436 174.535741 
L 310.048578 265.249935 
L 310.211149 204.773806 
L 310.373721 204.773806 
L 310.536292 265.249935 
L 311.024005 174.535741 
L 311.186576 235.011871 
L 311.349147 235.011871 
L 311.511718 114.059612 
L 311.67429 174.535741 
L 311.836861 295.488 
L 311.999432 295.488 
L 312.162003 174.535741 
L 312.324574 144.297677 
L 312.487145 265.249935 
L 312.649716 295.488 
L 312.812288 204.773806 
L 312.974859 204.773806 
L 313.13743 265.249935 
L 313.462572 114.059612 
L 313.625143 144.297677 
L 313.787714 265.249935 
L 313.950285 295.488 
L 314.112857 174.535741 
L 314.275428 144.297677 
L 314.60057 235.011871 
L 314.763141 174.535741 
L 314.925712 204.773806 
L 315.088283 295.488 
L 315.250854 295.488 
L 315.413426 174.535741 
L 315.575997 144.297677 
L 315.738568 235.011871 
L 315.901139 204.773806 
L 316.06371 144.297677 
L 316.226281 144.297677 
L 316.551423 265.249935 
L 316.876566 144.297677 
L 317.039137 204.773806 
L 317.201708 204.773806 
L 317.52685 144.297677 
L 317.689421 265.249935 
L 317.851993 295.488 
L 318.014564 204.773806 
L 318.177135 204.773806 
L 318.339706 295.488 
L 318.502277 295.488 
L 318.664848 204.773806 
L 318.827419 204.773806 
L 318.98999 265.249935 
L 319.152562 235.011871 
L 319.315133 144.297677 
L 319.477704 144.297677 
L 319.640275 235.011871 
L 319.802846 235.011871 
L 319.965417 114.059612 
L 320.127988 83.806065 
L 320.290559 204.773806 
L 320.453131 204.773806 
L 320.615702 144.297677 
L 320.778273 174.535741 
L 321.103415 265.249935 
L 321.428557 144.297677 
L 321.7537 265.249935 
L 322.078842 144.297677 
L 322.403984 204.773806 
L 322.566555 174.535741 
L 322.729126 204.773806 
L 322.891698 295.488 
L 323.054269 265.249935 
L 323.21684 144.297677 
L 323.379411 144.297677 
L 323.541982 265.249935 
L 323.704553 295.488 
L 323.867124 174.535741 
L 324.029695 144.297677 
L 324.354838 235.011871 
L 324.517409 174.535741 
L 324.67998 174.535741 
L 324.842551 295.488 
L 325.005122 265.249935 
L 325.330264 144.297677 
L 325.655407 235.011871 
L 325.980549 144.297677 
L 326.305691 235.011871 
L 326.630834 144.297677 
L 326.955976 204.773806 
L 327.118547 174.535741 
L 327.281118 174.535741 
L 327.443689 235.011871 
L 327.60626 235.011871 
L 327.768831 174.535741 
L 327.931403 204.773806 
L 328.093974 295.488 
L 328.256545 295.488 
L 328.419116 204.773806 
L 328.581687 204.773806 
L 328.744258 295.488 
L 328.906829 265.249935 
L 329.231972 144.297677 
L 329.557114 235.011871 
L 329.882256 144.297677 
L 330.044827 235.011871 
L 330.207398 235.011871 
L 330.369969 174.535741 
L 330.532541 174.535741 
L 330.695112 235.011871 
L 330.857683 235.011871 
L 331.020254 174.535741 
L 331.182825 174.535741 
L 331.345396 265.249935 
L 331.83311 174.535741 
L 332.158252 265.249935 
L 332.320823 204.773806 
L 332.483394 204.773806 
L 332.645965 295.488 
L 332.808536 295.488 
L 333.133679 144.297677 
L 333.29625 174.535741 
L 333.458821 174.535741 
L 333.621392 114.059612 
L 333.783963 114.059612 
L 333.946534 235.011871 
L 334.109105 235.011871 
L 334.271677 174.535741 
L 334.434248 174.535741 
L 334.596819 295.488 
L 334.75939 295.488 
L 335.084532 114.059612 
L 335.409675 295.488 
L 335.572246 174.535741 
L 335.734817 144.297677 
L 335.897388 265.249935 
L 336.059959 295.488 
L 336.22253 174.535741 
L 336.385101 144.297677 
L 336.547672 265.249935 
L 336.710244 295.488 
L 336.872815 174.535741 
L 337.035386 144.297677 
L 337.360528 235.011871 
L 337.523099 174.535741 
L 337.68567 174.535741 
L 338.010813 265.249935 
L 338.173384 204.773806 
L 338.335955 204.773806 
L 338.498526 295.488 
L 338.661097 265.249935 
L 338.986239 144.297677 
L 339.311382 265.249935 
L 339.473953 204.773806 
L 339.636524 204.773806 
L 339.799095 295.488 
L 339.961666 265.249935 
L 340.286808 144.297677 
L 340.611951 265.249935 
L 340.774522 204.773806 
L 340.937093 204.773806 
L 341.099664 295.488 
L 341.262235 295.488 
L 341.587377 114.059612 
L 341.91252 235.011871 
L 342.075091 204.773806 
L 342.237662 204.773806 
L 342.400233 295.488 
L 342.562804 295.488 
L 342.887946 114.059612 
L 343.213089 204.773806 
L 343.37566 114.059612 
L 343.538231 144.297677 
L 343.700802 235.011871 
L 343.863373 235.011871 
L 344.025944 174.535741 
L 344.188516 174.535741 
L 344.351087 265.249935 
L 344.676229 204.773806 
L 344.8388 204.773806 
L 345.001371 295.488 
L 345.163942 235.011871 
L 345.326513 114.059612 
L 345.489085 144.297677 
L 345.651656 295.488 
L 345.814227 235.011871 
L 345.976798 114.059612 
L 346.139369 174.535741 
L 346.30194 295.488 
L 346.464511 295.488 
L 346.627082 204.773806 
L 346.789654 204.773806 
L 346.952225 265.249935 
L 347.439938 174.535741 
L 347.76508 265.249935 
L 348.090223 83.806065 
L 348.252794 204.773806 
L 348.415365 235.011871 
L 348.577936 114.059612 
L 348.740507 174.535741 
L 348.903078 295.488 
L 349.065649 295.488 
L 349.390792 174.535741 
L 349.553363 235.011871 
L 349.715934 235.011871 
L 349.878505 174.535741 
L 350.041076 204.773806 
L 350.203647 295.488 
L 350.366218 295.488 
L 350.691361 174.535741 
L 351.016503 235.011871 
L 351.341645 174.535741 
L 351.666787 265.249935 
L 351.99193 174.535741 
L 352.317072 265.249935 
L 352.642214 144.297677 
L 352.967356 265.249935 
L 353.292499 144.297677 
L 353.45507 265.249935 
L 353.617641 295.488 
L 353.942783 174.535741 
L 354.267926 265.249935 
L 354.593068 144.297677 
L 354.755639 265.249935 
L 354.91821 295.488 
L 355.080781 204.773806 
L 355.243352 204.773806 
L 355.405923 295.488 
L 355.568495 295.488 
L 355.893637 174.535741 
L 356.218779 265.249935 
L 356.543921 174.535741 
L 356.869064 265.249935 
L 357.194206 144.297677 
L 357.356777 265.249935 
L 357.519348 235.011871 
L 357.681919 114.059612 
L 357.84449 114.059612 
L 358.007062 204.773806 
L 358.169633 174.535741 
L 358.332204 114.059612 
L 358.494775 174.535741 
L 358.657346 295.488 
L 358.819917 265.249935 
L 359.145059 144.297677 
L 359.470202 265.249935 
L 359.632773 204.773806 
L 359.795344 204.773806 
L 359.957915 265.249935 
L 360.120486 235.011871 
L 360.445628 114.059612 
L 360.770771 265.249935 
L 361.095913 114.059612 
L 361.258484 235.011871 
L 361.421055 235.011871 
L 361.746197 144.297677 
L 361.908769 204.773806 
L 362.07134 204.773806 
L 362.233911 174.535741 
L 362.396482 114.059612 
L 362.721624 235.011871 
L 362.884195 174.535741 
L 363.046767 174.535741 
L 363.209338 295.488 
L 363.371909 295.488 
L 363.697051 144.297677 
L 363.859622 174.535741 
L 364.022193 174.535741 
L 364.347336 114.059612 
L 364.509907 235.011871 
L 364.672478 265.249935 
L 364.99762 144.297677 
L 365.160191 235.011871 
L 365.322762 235.011871 
L 365.485333 114.059612 
L 365.647905 144.297677 
L 365.973047 265.249935 
L 366.298189 144.297677 
L 366.46076 265.249935 
L 366.623331 265.249935 
L 366.948474 144.297677 
L 367.111045 174.535741 
L 367.436187 114.059612 
L 367.598758 144.297677 
L 367.761329 265.249935 
L 367.9239 265.249935 
L 368.249043 144.297677 
L 368.411614 204.773806 
L 368.574185 204.773806 
L 368.736756 174.535741 
L 368.899327 174.535741 
L 369.061898 295.488 
L 369.224469 265.249935 
L 369.387041 174.535741 
L 369.549612 174.535741 
L 369.874754 265.249935 
L 370.199896 174.535741 
L 370.525038 265.249935 
L 370.850181 144.297677 
L 371.012752 235.011871 
L 371.175323 235.011871 
L 371.500465 144.297677 
L 371.663036 235.011871 
L 371.825608 204.773806 
L 371.988179 144.297677 
L 372.15075 144.297677 
L 372.475892 235.011871 
L 372.801034 174.535741 
L 373.126177 235.011871 
L 373.288748 204.773806 
L 373.451319 144.297677 
L 373.776461 235.011871 
L 374.101603 174.535741 
L 374.264174 235.011871 
L 374.426746 235.011871 
L 374.589317 174.535741 
L 374.751888 174.535741 
L 374.914459 295.488 
L 375.07703 295.488 
L 375.239601 204.773806 
L 375.402172 204.773806 
L 375.564743 295.488 
L 375.727315 265.249935 
L 375.889886 174.535741 
L 376.052457 174.535741 
L 376.215028 295.488 
L 376.377599 295.488 
L 376.702741 174.535741 
L 376.865313 235.011871 
L 377.027884 235.011871 
L 377.353026 114.059612 
L 377.678168 174.535741 
L 378.00331 174.535741 
L 378.328453 235.011871 
L 378.491024 204.773806 
L 378.653595 204.773806 
L 378.816166 295.488 
L 378.978737 295.488 
L 379.141308 174.535741 
L 379.303879 144.297677 
L 379.466451 204.773806 
L 379.629022 204.773806 
L 379.791593 144.297677 
L 379.954164 174.535741 
L 380.116735 265.249935 
L 380.604448 114.059612 
L 380.929591 235.011871 
L 381.092162 204.773806 
L 381.254733 114.059612 
L 381.417304 144.297677 
L 381.579875 204.773806 
L 381.742446 204.773806 
L 381.905018 174.535741 
L 382.23016 235.011871 
L 382.392731 204.773806 
L 382.555302 204.773806 
L 382.717873 295.488 
L 382.880444 295.488 
L 383.205587 114.059612 
L 383.530729 295.488 
L 383.855871 174.535741 
L 384.018442 235.011871 
L 384.181013 235.011871 
L 384.506156 114.059612 
L 384.668727 174.535741 
L 384.831298 174.535741 
L 384.993869 114.059612 
L 385.15644 114.059612 
L 385.319011 204.773806 
L 385.481582 204.773806 
L 385.806725 114.059612 
L 385.969296 204.773806 
L 386.131867 204.773806 
L 386.294438 144.297677 
L 386.457009 144.297677 
L 386.61958 204.773806 
L 386.782151 204.773806 
L 386.944723 144.297677 
L 387.107294 144.297677 
L 387.269865 265.249935 
L 387.432436 295.488 
L 387.757578 174.535741 
L 387.920149 235.011871 
L 388.08272 235.011871 
L 388.245292 174.535741 
L 388.407863 174.535741 
L 388.570434 295.488 
L 388.733005 295.488 
L 389.058147 174.535741 
L 389.220718 235.011871 
L 389.383289 235.011871 
L 389.545861 174.535741 
L 389.708432 174.535741 
L 389.871003 295.488 
L 390.033574 295.488 
L 390.358716 174.535741 
L 390.521287 235.011871 
L 390.683859 235.011871 
L 390.84643 114.059612 
L 391.009001 174.535741 
L 391.171572 295.488 
L 391.334143 265.249935 
L 391.659285 144.297677 
L 391.821856 235.011871 
L 391.984428 235.011871 
L 392.146999 174.535741 
L 392.30957 174.535741 
L 392.472141 295.488 
L 392.634712 295.488 
L 392.797283 204.773806 
L 392.959854 204.773806 
L 393.122425 265.249935 
L 393.284997 235.011871 
L 393.610139 114.059612 
L 393.935281 235.011871 
L 394.260423 144.297677 
L 394.422994 235.011871 
L 394.585566 204.773806 
L 394.748137 144.297677 
L 394.910708 174.535741 
L 395.073279 295.488 
L 395.23585 295.488 
L 395.560992 174.535741 
L 395.723564 235.011871 
L 395.886135 235.011871 
L 396.048706 114.059612 
L 396.211277 114.059612 
L 396.373848 204.773806 
L 396.536419 204.773806 
L 396.69899 144.297677 
L 396.861561 174.535741 
L 397.024133 295.488 
L 397.186704 295.488 
L 397.349275 204.773806 
L 397.511846 204.773806 
L 397.674417 295.488 
L 397.836988 265.249935 
L 398.16213 144.297677 
L 398.487273 204.773806 
L 398.487273 204.773806 
" style="fill:none;stroke:#1f77b4;stroke-linecap:square;stroke-width:1.5;"/>
   </g>
   <g id="patch_3">
    <path d="M 57.6 307.584 
L 57.6 41.472 
" style="fill:none;stroke:#000000;stroke-linecap:square;stroke-linejoin:miter;stroke-width:0.8;"/>
   </g>
   <g id="patch_4">
    <path d="M 414.72 307.584 
L 414.72 41.472 
" style="fill:none;stroke:#000000;stroke-linecap:square;stroke-linejoin:miter;stroke-width:0.8;"/>
   </g>
   <g id="patch_5">
    <path d="M 57.6 307.584 
L 414.72 307.584 
" style="fill:none;stroke:#000000;stroke-linecap:square;stroke-linejoin:miter;stroke-width:0.8;"/>
   </g>
   <g id="patch_6">
    <path d="M 57.6 41.472 
L 414.72 41.472 
" style="fill:none;stroke:#000000;stroke-linecap:square;stroke-linejoin:miter;stroke-width:0.8;"/>
   </g>
   <g id="text_18">
    <!-- DSO-Waveform (CH2) -->
    <defs>
     <path d="M 19.671875 64.796875 
L 19.671875 8.109375 
L 31.59375 8.109375 
Q 46.6875 8.109375 53.6875 14.9375 
Q 60.6875 21.78125 60.6875 36.53125 
Q 60.6875 51.171875 53.6875 57.984375 
Q 46.6875 64.796875 31.59375 64.796875 
z
M 9.8125 72.90625 
L 30.078125 72.90625 
Q 51.265625 72.90625 61.171875 64.09375 
Q 71.09375 55.28125 71.09375 36.53125 
Q 71.09375 17.671875 61.125 8.828125 
Q 51.171875 0 30.078125 0 
L 9.8125 0 
z
" id="DejaVuSans-68"/>
     <path d="M 53.515625 70.515625 
L 53.515625 60.890625 
Q 47.90625 63.578125 42.921875 64.890625 
Q 37.9375 66.21875 33.296875 66.21875 
Q 25.25 66.21875 20.875 63.09375 
Q 16.5 59.96875 16.5 54.203125 
Q 16.5 49.359375 19.40625 46.890625 
Q 22.3125 44.4375 30.421875 42.921875 
L 36.375 41.703125 
Q 47.40625 39.59375 52.65625 34.296875 
Q 57.90625 29 57.90625 20.125 
Q 57.90625 9.515625 50.796875 4.046875 
Q 43.703125 -1.421875 29.984375 -1.421875 
Q 24.8125 -1.421875 18.96875 -0.25 
Q 13.140625 0.921875 6.890625 3.21875 
L 6.890625 13.375 
Q 12.890625 10.015625 18.65625 8.296875 
Q 24.421875 6.59375 29.984375 6.59375 
Q 38.421875 6.59375 43.015625 9.90625 
Q 47.609375 13.234375 47.609375 19.390625 
Q 47.609375 24.75 44.3125 27.78125 
Q 41.015625 30.8125 33.5 32.328125 
L 27.484375 33.5 
Q 16.453125 35.6875 11.515625 40.375 
Q 6.59375 45.0625 6.59375 53.421875 
Q 6.59375 63.09375 13.40625 68.65625 
Q 20.21875 74.21875 32.171875 74.21875 
Q 37.3125 74.21875 42.625 73.28125 
Q 47.953125 72.359375 53.515625 70.515625 
z
" id="DejaVuSans-83"/>
     <path d="M 4.890625 31.390625 
L 31.203125 31.390625 
L 31.203125 23.390625 
L 4.890625 23.390625 
z
" id="DejaVuSans-45"/>
     <path d="M 3.328125 72.90625 
L 13.28125 72.90625 
L 28.609375 11.28125 
L 43.890625 72.90625 
L 54.984375 72.90625 
L 70.3125 11.28125 
L 85.59375 72.90625 
L 95.609375 72.90625 
L 77.296875 0 
L 64.890625 0 
L 49.515625 63.28125 
L 33.984375 0 
L 21.578125 0 
z
" id="DejaVuSans-87"/>
     <path d="M 37.109375 75.984375 
L 37.109375 68.5 
L 28.515625 68.5 
Q 23.6875 68.5 21.796875 66.546875 
Q 19.921875 64.59375 19.921875 59.515625 
L 19.921875 54.6875 
L 34.71875 54.6875 
L 34.71875 47.703125 
L 19.921875 47.703125 
L 19.921875 0 
L 10.890625 0 
L 10.890625 47.703125 
L 2.296875 47.703125 
L 2.296875 54.6875 
L 10.890625 54.6875 
L 10.890625 58.5 
Q 10.890625 67.625 15.140625 71.796875 
Q 19.390625 75.984375 28.609375 75.984375 
z
" id="DejaVuSans-102"/>
     <path d="M 41.109375 46.296875 
Q 39.59375 47.171875 37.8125 47.578125 
Q 36.03125 48 33.890625 48 
Q 26.265625 48 22.1875 43.046875 
Q 18.109375 38.09375 18.109375 28.8125 
L 18.109375 0 
L 9.078125 0 
L 9.078125 54.6875 
L 18.109375 54.6875 
L 18.109375 46.1875 
Q 20.953125 51.171875 25.484375 53.578125 
Q 30.03125 56 36.53125 56 
Q 37.453125 56 38.578125 55.875 
Q 39.703125 55.765625 41.0625 55.515625 
z
" id="DejaVuSans-114"/>
     <path d="M 64.40625 67.28125 
L 64.40625 56.890625 
Q 59.421875 61.53125 53.78125 63.8125 
Q 48.140625 66.109375 41.796875 66.109375 
Q 29.296875 66.109375 22.65625 58.46875 
Q 16.015625 50.828125 16.015625 36.375 
Q 16.015625 21.96875 22.65625 14.328125 
Q 29.296875 6.6875 41.796875 6.6875 
Q 48.140625 6.6875 53.78125 8.984375 
Q 59.421875 11.28125 64.40625 15.921875 
L 64.40625 5.609375 
Q 59.234375 2.09375 53.4375 0.328125 
Q 47.65625 -1.421875 41.21875 -1.421875 
Q 24.65625 -1.421875 15.125 8.703125 
Q 5.609375 18.84375 5.609375 36.375 
Q 5.609375 53.953125 15.125 64.078125 
Q 24.65625 74.21875 41.21875 74.21875 
Q 47.75 74.21875 53.53125 72.484375 
Q 59.328125 70.75 64.40625 67.28125 
z
" id="DejaVuSans-67"/>
     <path d="M 9.8125 72.90625 
L 19.671875 72.90625 
L 19.671875 43.015625 
L 55.515625 43.015625 
L 55.515625 72.90625 
L 65.375 72.90625 
L 65.375 0 
L 55.515625 0 
L 55.515625 34.71875 
L 19.671875 34.71875 
L 19.671875 0 
L 9.8125 0 
z
" id="DejaVuSans-72"/>
    </defs>
    <g transform="translate(170.796562 35.472)scale(0.12 -0.12)">
     <use xlink:href="#DejaVuSans-68"/>
     <use x="77.001953" xlink:href="#DejaVuSans-83"/>
     <use x="140.478516" xlink:href="#DejaVuSans-79"/>
     <use x="219.220703" xlink:href="#DejaVuSans-45"/>
     <use x="255.242188" xlink:href="#DejaVuSans-87"/>
     <use x="354.025391" xlink:href="#DejaVuSans-97"/>
     <use x="415.304688" xlink:href="#DejaVuSans-118"/>
     <use x="474.484375" xlink:href="#DejaVuSans-101"/>
     <use x="536.007812" xlink:href="#DejaVuSans-102"/>
     <use x="571.212891" xlink:href="#DejaVuSans-111"/>
     <use x="632.394531" xlink:href="#DejaVuSans-114"/>
     <use x="673.492188" xlink:href="#DejaVuSans-109"/>
     <use x="770.904297" xlink:href="#DejaVuSans-32"/>
     <use x="802.691406" xlink:href="#DejaVuSans-40"/>
     <use x="841.705078" xlink:href="#DejaVuSans-67"/>
     <use x="911.529297" xlink:href="#DejaVuSans-72"/>
     <use x="986.724609" xlink:href="#DejaVuSans-50"/>
     <use x="1050.347656" xlink:href="#DejaVuSans-41"/>
    </g>
   </g>
  </g>
 </g>
 <defs>
  <clipPath id="pfbd686bd8f">
   <rect height="266.112" width="357.12" x="57.6" y="41.472"/>
  </clipPath>
 </defs>
</svg>
